<?xml version="1.0" encoding="UTF-8"?>
<svg version="1.1" xmlns="http://www.w3.org/2000/svg" viewBox="793 1769 2581 633">
<path d="M0 0 C35.33814583 -0.04577281 70.67628474 -0.08109511 106.01445406 -0.10213066 C110.20063543 -0.10463162 114.38681676 -0.10722031 118.57299805 -0.10986328 C119.8229186 -0.11065021 119.8229186 -0.11065021 121.09809007 -0.11145304 C134.53346731 -0.12012021 147.96882717 -0.13586952 161.40419415 -0.15430559 C175.2232451 -0.17310789 189.04228703 -0.18413838 202.86135024 -0.18817699 C211.36627968 -0.1909008 219.87115999 -0.19945553 228.37607428 -0.21583293 C234.23377951 -0.22652785 240.09145989 -0.22957287 245.94917414 -0.22700275 C249.31248884 -0.22574055 252.67565117 -0.22861175 256.03896141 -0.23841095 C278.90282344 -0.30167751 301.71332507 0.55020807 324.3125 4.25 C324.97424225 4.35637787 325.6359845 4.46275574 326.31777954 4.57235718 C365.75534909 10.95812349 406.76879694 25.90987562 431.53735352 59.01196289 C453.78404476 89.91801086 461.61966637 131.03874615 455.6796875 168.46875 C449.67581194 199.66129891 431.98824316 224.97391209 405.828125 242.8984375 C371.88331223 265.47719647 332.23787929 276.64012129 292.29663086 282.79663086 C290.87942749 283.0152478 290.87942749 283.0152478 289.43359375 283.23828125 C288.59884521 283.36243408 287.76409668 283.48658691 286.90405273 283.61450195 C284.99793257 283.8178241 284.99793257 283.8178241 284 285 C284.83845459 285.09498779 285.67690918 285.18997559 286.54077148 285.2878418 C365.47840782 294.35773046 365.47840782 294.35773046 394 320 C394.66644531 320.5259375 395.33289062 321.051875 396.01953125 321.59375 C421.41919787 342.0337184 431.29399675 378.36846571 435.9609375 409.10791016 C436.13352081 410.23937281 436.30610413 411.37083546 436.48391724 412.53658485 C438.06992972 423.13152634 439.34885957 433.75059636 440.52301025 444.39805222 C440.88847375 447.70796594 441.26149009 451.01696053 441.63623047 454.32583618 C442.69792606 463.71137867 443.74699021 473.09831667 444.79101562 482.48583984 C445.43674384 488.28737225 446.09099159 494.08789689 446.75006104 499.88792801 C446.99568234 502.06482079 447.23811158 504.24207665 447.47698975 506.4197197 C448.64246787 517.04260821 449.95232228 527.57717187 452.03125 538.06494141 C452.19094269 538.87092459 452.35063538 539.67690777 452.51516724 540.50731468 C455.19625755 553.35285696 460.71859695 565.56702879 472 573 C483.32142272 579.40685082 497.86237115 578.38895225 510.0625 575.1875 C512.38190636 574.48060934 514.69514738 573.75299049 517 573 C518.97820417 572.41341092 520.95725214 571.82965238 522.9375 571.25 C524.29242657 570.83581107 525.64693944 570.42024469 527 570 C527.83819158 571.62249941 528.6704116 573.24808497 529.5 574.875 C529.9640625 575.77992188 530.428125 576.68484375 530.90625 577.6171875 C532 580 532 580 532 582 C490.83748066 596.02745073 438.26610269 600.25367669 398 581 C376.40045545 569.39094246 364.38094928 550.22630701 357.2421875 527.43359375 C348.69359556 497.5823512 345.73311026 466.57622992 342.05714607 435.84345818 C341.76092254 433.36834722 341.46386621 430.89333743 341.16661072 428.41835022 C340.96690171 426.75424767 340.76724058 425.09013938 340.56762695 423.42602539 C340.4684154 422.59895867 340.36920385 421.77189196 340.26698589 420.91976261 C339.67728294 415.99341537 339.09756854 411.06600835 338.52480602 406.13766479 C333.14087301 355.0617912 333.14087301 355.0617912 303.9296875 314.53125 C265.90037967 286.33201748 212.53306656 293.58828468 169 293 C169 385.4 169 477.8 169 573 C197.05 573 225.1 573 254 573 C254 577.95 254 582.9 254 588 C170.18 588 86.36 588 0 588 C0 583.05 0 578.1 0 573 C27.39 573 54.78 573 83 573 C83 388.53 83 204.06 83 14 C55.61 14 28.22 14 0 14 C0 9.38 0 4.76 0 0 Z M169 14 C169 101.12 169 188.24 169 278 C252.99407559 280.53927108 252.99407559 280.53927108 328 247 C328.70253906 246.46117187 329.40507812 245.92234375 330.12890625 245.3671875 C352.47717616 227.39827553 361.99011168 197.61246253 365.1875 170.1875 C368.49691717 137.59686329 365.92678562 102.59010895 351 73 C350.47792969 71.95585938 349.95585937 70.91171875 349.41796875 69.8359375 C335.78281007 44.68885653 312.15936362 29.67536797 285.37890625 21.5 C247.74671536 10.67607084 207.50656246 14 169 14 Z " fill="#000000" transform="translate(2842,1800)"/>
<path d="M0 0 C3.63 0 7.26 0 11 0 C11.56376343 1.66156128 11.56376343 1.66156128 12.13891602 3.35668945 C19.01680739 23.61858196 25.92611414 43.86810412 33 64.0625 C39.49167134 82.59938957 45.88025411 101.17096606 52.25 119.75 C54.23939188 125.55214899 56.22890858 131.35425516 58.21875 137.15625 C58.46403191 137.87146505 58.70931381 138.58668011 58.9620285 139.32356834 C63.87198889 153.63907597 68.80522959 167.94647602 73.75 182.25 C74.13508728 183.36401184 74.52017456 184.47802368 74.91693115 185.62579346 C76.84357364 191.19893071 78.77072924 196.77189032 80.69824219 202.34472656 C84.59255387 213.6041061 88.48405688 224.86445601 92.375 236.125 C92.76268555 237.24680664 93.15037109 238.36861328 93.54980469 239.52441406 C98.15438995 252.84905209 102.75117182 266.17634374 107.3359375 279.5078125 C107.78733214 280.82028742 108.23872781 282.13276199 108.69012451 283.44523621 C109.59314515 286.07090061 110.4961578 288.69656777 111.39916992 291.32223511 C111.62222809 291.97080853 111.84528625 292.61938194 112.07510376 293.2876091 C112.52472485 294.59496909 112.97433018 295.9023345 113.42391968 297.20970535 C119.4982472 314.8728311 125.61008954 332.52222853 131.78137207 350.1517334 C136.74567028 364.33842678 141.6123709 378.55680795 146.44720459 392.78808594 C150.90362367 405.90138565 155.42136506 418.99139697 160 432.0625 C166.58000407 450.8476964 173.04705588 469.67089765 179.5 488.5 C188.24988446 514.02949792 197.07239125 539.53200723 206 565 C209.465 574.9 209.465 574.9 213 585 C247.155 585.495 247.155 585.495 282 586 C282 590.95 282 595.9 282 601 C201.15 601 120.3 601 37 601 C37 596.05 37 591.1 37 586 C63.73 586 90.46 586 118 586 C115.03 577.75 112.06 569.5 109 561 C106.58822001 553.96511673 104.19371804 546.92655188 101.83203125 539.875 C101.18366585 537.94620155 100.5350327 536.01749308 99.88615417 534.08886719 C98.19770826 529.06851049 96.51222843 524.04716381 94.82763672 519.0255127 C91.83261795 510.09916105 88.83253685 501.17450852 85.83203125 492.25 C85.34310583 490.79555984 85.34310583 490.79555984 84.84430313 489.31173706 C80.03540851 475.00967822 75.19678357 460.717994 70.32421875 446.4375 C70.03736521 445.59586304 69.75051167 444.75422607 69.45496559 443.88708496 C68.63611187 441.48551708 67.81591438 439.08441456 66.99487305 436.68359375 C66.61297742 435.56574997 66.61297742 435.56574997 66.22336674 434.42532349 C65.01055799 430.88970878 63.77709106 427.36381683 62.49673462 423.85205078 C62.26148732 423.20534927 62.02624002 422.55864777 61.78386402 421.89234924 C61.15120069 420.16222114 60.51158089 418.43464122 59.87141418 416.70727539 C59 414 59 414 59 411 C0.26 411 -58.48 411 -119 411 C-119.99 414.63 -120.98 418.26 -122 422 C-122.63143571 424.06157481 -123.27934033 426.11829262 -123.9543457 428.16601562 C-124.30983994 429.24918564 -124.66533417 430.33235565 -125.03160095 431.448349 C-125.40918045 432.58945633 -125.78675995 433.73056366 -126.17578125 434.90625 C-126.79189375 436.78000644 -127.40800528 438.65376319 -128.02407551 440.52753353 C-128.67345043 442.50088368 -129.32416636 444.47378689 -129.97528076 446.44656372 C-131.32730191 450.54334716 -132.67506097 454.64152453 -134.02197266 458.73999023 C-135.60793676 463.56528934 -137.19441737 468.3904174 -138.78195953 473.21519756 C-142.20266237 483.61166148 -145.61532285 494.0107261 -149.0105896 504.41552734 C-149.57458224 506.14256938 -150.13950104 507.86930933 -150.70547485 509.59570312 C-153.64315491 518.55679318 -156.51113371 527.53694315 -159.2578125 536.55859375 C-159.5036911 537.35580338 -159.7495697 538.153013 -160.00289917 538.97438049 C-163.20158953 549.59625185 -167.56041192 564.48592808 -162.625 575.125 C-156.31926718 582.03127881 -147.16383855 584.55640854 -138.03312683 585.21351624 C-134.6450847 585.325195 -131.26081113 585.38083722 -127.87109375 585.4140625 C-126.02572777 585.44311172 -126.02572777 585.44311172 -124.14308167 585.4727478 C-120.24129006 585.53218602 -116.33946839 585.57878583 -112.4375 585.625 C-109.78056798 585.66216838 -107.12369014 585.7022662 -104.46679688 585.7421875 C-97.97796248 585.83785818 -91.48907014 585.92202085 -85 586 C-85 590.95 -85 595.9 -85 601 C-142.09 601 -199.18 601 -258 601 C-258 596.05 -258 591.1 -258 586 C-256.78006348 585.98541748 -255.56012695 585.97083496 -254.30322266 585.95581055 C-249.73685757 585.89743073 -245.17096531 585.82020304 -240.60498047 585.73754883 C-238.63630908 585.70448495 -236.66754711 585.67639655 -234.69873047 585.65356445 C-231.85345186 585.61967492 -229.00898961 585.56734529 -226.1640625 585.51171875 C-225.29697662 585.50532883 -224.42989075 585.4989389 -223.53652954 585.49235535 C-213.43966037 585.25446086 -205.66781595 582.86049555 -198.375 575.75 C-191.82265571 568.16307503 -187.91237086 559.16440844 -184.24223995 549.94317055 C-183.7243835 548.64290176 -183.7243835 548.64290176 -183.1960653 547.31636492 C-179.17374144 537.07747888 -175.70734139 526.66152449 -172.24916077 516.22177124 C-171.50514234 513.99074672 -170.76059384 511.75989891 -170.01556772 509.52921069 C-167.98931478 503.45739472 -165.9704802 497.38313546 -163.95293891 491.30842018 C-161.99414458 485.41258818 -160.02842892 479.51906213 -158.06347218 473.62528181 C-154.04913421 461.58386728 -150.0403064 449.54062536 -146.03465462 437.49631882 C-142.07246084 425.58277356 -138.10761841 413.67011494 -134.13934135 401.75859451 C-133.89188032 401.01579133 -133.64441929 400.27298816 -133.38945944 399.50767579 C-132.13251429 395.73475893 -130.87551915 391.96185873 -129.61850267 388.18896563 C-120.73243852 361.51751006 -111.85170853 334.84428126 -102.97436523 308.16992188 C-94.35597615 282.27373001 -85.73590384 256.37809972 -77.11303711 230.48339844 C-76.84693637 229.68428706 -76.58083564 228.88517569 -76.30667124 228.06184882 C-70.23420716 209.82602412 -64.16121042 191.59037685 -58.08779812 173.35486794 C-57.57311203 171.80950951 -57.05842615 170.26415101 -56.54374046 168.71879245 C-56.03113911 167.17969364 -55.51853769 165.64059486 -55.00593621 164.1014961 C-54.75299743 163.34204069 -54.50005866 162.58258527 -54.23945508 161.80011606 C-52.97122724 157.99223451 -51.7029884 154.18435663 -50.43472844 150.37648578 C-44.46758503 132.46046044 -38.5019677 114.54392848 -32.53900462 96.62651135 C-28.80452544 85.40524328 -25.0691326 74.18427965 -21.33300317 62.96356092 C-19.17510046 56.48259204 -17.01773179 50.00144641 -14.8617382 43.51984215 C-12.89133138 37.59629491 -10.91958224 31.67319633 -8.94673686 25.75046082 C-8.2304157 23.59912788 -7.51461529 21.44762148 -6.7993666 19.29593174 C-5.83301987 16.3890813 -4.86485774 13.48284198 -3.89621067 10.57675743 C-3.47281461 9.30091364 -3.47281461 9.30091364 -3.04086509 7.99929523 C-1.11412785 2.2282557 -1.11412785 2.2282557 0 0 Z M-32 145 C-35.32471114 152.90176769 -38.03037591 160.95896237 -40.6484375 169.1171875 C-41.09745595 170.50743871 -41.54679034 171.8975879 -41.99641418 173.28764343 C-43.20708072 177.03336951 -44.41354012 180.78043839 -45.61925888 184.52775955 C-46.89895138 188.50232958 -48.18266967 192.47559884 -49.46606445 196.44897461 C-51.32896057 202.2176128 -53.19065061 207.98663755 -55.05074787 213.75617886 C-58.26264093 223.71858688 -61.48226908 233.67846953 -64.70703125 243.63671875 C-65.1680622 245.06052083 -65.62909126 246.48432352 -66.09011841 247.90812683 C-66.77558418 250.02504063 -67.46105572 252.14195257 -68.14655113 254.25885677 C-74.24205135 273.08332624 -80.32827951 291.91079041 -86.40234375 310.7421875 C-86.62209555 311.42345577 -86.84184734 312.10472404 -87.06825829 312.80663681 C-89.21499838 319.46210527 -91.36114125 326.11776531 -93.50526714 332.77407646 C-97.2881467 344.51745065 -101.07651173 356.25873654 -104.9140625 367.984375 C-105.49268733 369.75528594 -106.07130109 371.5262005 -106.64990234 373.29711914 C-107.67911354 376.4464036 -108.71393088 379.59376185 -109.75244141 382.73999023 C-110.19453236 384.09091881 -110.6364407 385.44190717 -111.078125 386.79296875 C-111.45356445 387.9327417 -111.82900391 389.07251465 -112.21582031 390.24682617 C-113.13696628 393.00376208 -113.13696628 393.00376208 -113 396 C-57.89 396 -2.78 396 54 396 C50.04 384.12 46.08 372.24 42 360 C37.8203125 347.42578125 37.8203125 347.42578125 35.96948242 341.85742188 C29.88666888 323.56634994 23.74333724 305.2978107 17.49609375 287.06225586 C16.91534052 285.36703298 16.33461176 283.67180172 15.75390625 281.9765625 C15.45976837 281.11791092 15.16563049 280.25925934 14.86257935 279.37458801 C10.75799731 267.38336332 6.69433264 255.37822029 2.625 243.375 C-3.13734649 226.38256522 -8.90040974 209.39037801 -14.67877197 192.40338135 C-15.33461717 190.47505281 -15.9901904 188.54663173 -16.64544678 186.61810303 C-21.36691189 172.72316865 -26.16295064 158.85511513 -31 145 C-31.33 145 -31.66 145 -32 145 Z " fill="#000000" transform="translate(1051,1787)"/>
<path d="M0 0 C2.44013793 2.15442557 4.80620149 4.36505768 7.15625 6.6171875 C8.0121875 7.40996094 8.868125 8.20273438 9.75 9.01953125 C22.39851116 21.10467481 32.41951947 35.52413707 41.15625 50.6171875 C41.54264648 51.28153809 41.92904297 51.94588867 42.32714844 52.63037109 C52.34073211 70.07650158 62.84843747 92.04933122 62.15625 112.6171875 C61.17134838 115.68330658 60.44396105 117.32947645 58.15625 119.6171875 C55.24786382 119.81076005 52.43501554 119.87754095 49.52572632 119.85769653 C48.6215524 119.85940538 47.71737848 119.86111423 46.78580534 119.86287487 C43.73782107 119.86618491 40.69005404 119.85514123 37.64208984 119.84423828 C35.46448268 119.84367449 33.28687513 119.84399009 31.10926819 119.84512329 C25.18185668 119.84569907 19.25452548 119.83390836 13.3271327 119.81997538 C7.1384722 119.8075055 0.94981004 119.80630048 -5.23886108 119.80392456 C-16.29772159 119.79805306 -27.35654873 119.78359591 -38.41539399 119.76463912 C-52.42953604 119.74074345 -66.4436735 119.7283841 -80.45783162 119.71783471 C-107.91982503 119.69690779 -135.38178544 119.6617105 -162.84375 119.6171875 C-162.89072177 130.9467036 -162.92594034 142.2761954 -162.94737434 153.60579014 C-162.95767728 158.8702858 -162.97157926 164.13471341 -162.99462891 169.39916992 C-165.82019939 240.0496897 -165.82019939 240.0496897 -136.1171875 301.44140625 C-116.38369739 320.32723785 -92.41988739 322.28858921 -66.359375 321.75341797 C-33.1059435 320.4648475 -2.4501548 304.08631831 20.46484375 280.6171875 C38.58313007 260.92538514 48.2739832 236.17239575 53.69482422 210.37280273 C54.15625 208.6171875 54.15625 208.6171875 55.15625 207.6171875 C57.50938555 207.54447009 59.86458668 207.53347882 62.21875 207.5546875 C63.50910156 207.56371094 64.79945313 207.57273437 66.12890625 207.58203125 C67.62744141 207.59943359 67.62744141 207.59943359 69.15625 207.6171875 C68.58551185 214.26460836 67.34679488 220.34710041 65.46875 226.7421875 C65.0651123 228.12349854 65.0651123 228.12349854 64.65332031 229.53271484 C56.62703288 256.41656322 43.29913769 279.00437581 23.15625 298.6171875 C22.70636719 299.1121875 22.25648438 299.6071875 21.79296875 300.1171875 C-0.12087751 323.60796066 -35.49150751 335.71189955 -66.9296875 337.52734375 C-68.37214844 337.57181641 -68.37214844 337.57181641 -69.84375 337.6171875 C-71.01164062 337.65714844 -72.17953125 337.69710937 -73.3828125 337.73828125 C-111.35229908 338.38505607 -151.94484064 328.46047741 -180.84375 302.6171875 C-181.64554688 301.92238281 -182.44734375 301.22757813 -183.2734375 300.51171875 C-185.83812076 298.25463769 -188.34757289 295.94974324 -190.84375 293.6171875 C-191.730625 292.79605469 -192.6175 291.97492187 -193.53125 291.12890625 C-225.93270791 260.06216748 -243.06837186 211.60635821 -244.10897827 167.2988739 C-244.15723443 163.84458233 -244.16809001 160.39136251 -244.15942383 156.93676758 C-244.15626538 154.31744612 -244.17983003 151.69926119 -244.20507812 149.08007812 C-244.2662753 133.1300377 -242.19495576 117.77896121 -237.78125 102.4296875 C-237.48524902 101.39070313 -237.18924805 100.35171875 -236.88427734 99.28125 C-222.8024968 51.70592214 -192.10947511 5.70876261 -147.93359375 -18.57421875 C-98.07813515 -44.95922354 -42.27464855 -35.42243903 0 0 Z M-141.45703125 2.75390625 C-151.99284076 15.39342895 -157.75940779 31.6455758 -160.84375 47.6171875 C-161.01550247 48.5056839 -161.18725494 49.3941803 -161.36421204 50.30960083 C-163.2673772 61.6922666 -163.06735424 72.98525909 -162.96875 84.4921875 C-162.95869549 86.5481727 -162.94957403 88.60416269 -162.94140625 90.66015625 C-162.91959925 95.64595367 -162.8852069 100.63151634 -162.84375 105.6171875 C-144.64183932 105.66387474 -126.43994415 105.69916025 -108.23798656 105.72081184 C-99.7868112 105.73113154 -91.335673 105.74520508 -82.88452148 105.76806641 C-75.51989048 105.7879791 -68.15528639 105.80089889 -60.79062921 105.80536449 C-56.88984205 105.80797547 -52.98913189 105.81412674 -49.08836937 105.82864761 C-45.41864253 105.84219807 -41.74902461 105.84641531 -38.07927513 105.84340286 C-36.08670032 105.84421751 -34.09413744 105.8549924 -32.10159302 105.86602783 C-30.91948746 105.8632785 -29.7373819 105.86052917 -28.51945496 105.85769653 C-27.48981219 105.85954012 -26.46016943 105.86138371 -25.39932537 105.86328316 C-22.60162575 105.79694229 -22.60162575 105.79694229 -19.84375 103.6171875 C-18.29458312 99.89562569 -18.6932585 95.71108405 -18.71875 91.7421875 C-18.72285889 90.9569873 -18.72696777 90.17178711 -18.73120117 89.36279297 C-19.01570708 58.09161665 -20.53713664 22.83966251 -42.31640625 -1.91796875 C-55.82344611 -15.09098599 -71.87502539 -19.64048903 -90.38305664 -19.6315918 C-110.49419497 -19.3648251 -127.53850831 -11.64531921 -141.45703125 2.75390625 Z " fill="#000000" transform="translate(1893.84375,2060.3828125)"/>
<path d="M0 0 C1.25941406 0.32742188 2.51882812 0.65484375 3.81640625 0.9921875 C29.74331964 8.65559016 53.97145673 26.16426209 71 47 C71.41830078 47.49532227 71.83660156 47.99064453 72.26757812 48.50097656 C91.11401034 70.82049955 107.00105459 97.96264536 113.5 126.6875 C113.66016602 127.39310059 113.82033203 128.09870117 113.98535156 128.82568359 C115.28447748 135.18718071 116.56382067 142.23384463 113 148 C109.69286506 149.65356747 106.00455189 149.13265204 102.36947632 149.12025452 C101.01321544 149.12153615 101.01321544 149.12153615 99.62955534 149.12284368 C96.5816304 149.12449867 93.53375977 149.11897678 90.48583984 149.11352539 C88.30823264 149.1132435 86.13062534 149.11340129 83.95301819 149.1139679 C78.02563144 149.11425579 72.09826477 149.10836042 66.1708827 149.10139394 C59.98221913 149.095159 53.79355514 149.09455649 47.60488892 149.09336853 C36.54604056 149.09043278 25.48720055 149.0832042 14.42835601 149.07372581 C0.41421109 149.06177797 -13.59993268 149.0555983 -27.61408162 149.05032361 C-55.07605957 149.03986015 -82.53802926 149.0222615 -110 149 C-109.93831493 162.66708176 -109.86087744 176.33398 -109.76428509 190.00086212 C-109.71988971 196.34951974 -109.68056904 202.6981177 -109.65356445 209.046875 C-109.62721963 215.19380661 -109.58660696 221.34050468 -109.53681374 227.48728943 C-109.52035278 229.81193599 -109.50871121 232.13662274 -109.50238609 234.46131897 C-109.39926068 268.93591673 -106.52192021 306.11492676 -81.703125 332.45703125 C-77.51826544 336.39394392 -73.04190475 339.2790854 -68 342 C-67.17242188 342.46019531 -66.34484375 342.92039062 -65.4921875 343.39453125 C-43.73899107 354.40417654 -15.15487597 353.90222329 8 348 C8.6717627 347.83902832 9.34352539 347.67805664 10.03564453 347.51220703 C37.5966136 340.81965541 63.05424145 324.86821558 80 302 C80.56589844 301.28328125 81.13179687 300.5665625 81.71484375 299.828125 C95.74049514 281.21526057 102.81458515 259.38879116 108 237 C112.62 237 117.24 237 122 237 C119.82649259 272.31949544 99.42369778 307.22364045 74 331 C42.63080087 357.97459771 3.29603125 369.57763455 -37.7734375 366.6875 C-68.70815156 364.17535817 -99.59904614 354.82328714 -124 335 C-124.88300781 334.31679687 -125.76601562 333.63359375 -126.67578125 332.9296875 C-160.63590992 306.12664394 -180.58954219 266.14697879 -188 224 C-188.14953125 223.15405273 -188.2990625 222.30810547 -188.453125 221.43652344 C-192.5478611 197.08872842 -193.45014764 170.19023302 -188 146 C-187.80132324 145.10345703 -187.60264648 144.20691406 -187.39794922 143.28320312 C-178.72828872 105.2276147 -160.94047411 70.3583938 -134 42 C-133.50016602 41.46761719 -133.00033203 40.93523438 -132.48535156 40.38671875 C-98.26181178 4.1379964 -49.16000972 -13.51360859 0 0 Z M-82 26 C-82.63550781 26.52078125 -83.27101563 27.0415625 -83.92578125 27.578125 C-102.1120078 44.13386228 -108.15808164 71.55236285 -110 95 C-110.29546743 101.99640125 -110.19201929 108.99964531 -110.125 116 C-110.11493715 117.85416176 -110.10581721 119.70832889 -110.09765625 121.5625 C-110.07593439 126.04180273 -110.0415922 130.52083953 -110 135 C-91.81539151 135.09340551 -73.6308452 135.16396057 -55.44604874 135.20724869 C-47.00268794 135.22788158 -38.55947612 135.25601595 -30.11621094 135.30175781 C-22.75779553 135.34160347 -15.399488 135.36742753 -8.0409677 135.37635398 C-4.14395911 135.38157263 -0.24725917 135.39385306 3.64965057 135.42292023 C7.31700451 135.45005371 10.98392241 135.45844936 14.65136719 135.45243073 C16.6402136 135.4540573 18.62901242 135.47559095 20.61773682 135.49768066 C21.80121704 135.49218201 22.98469727 135.48668335 24.20404053 135.48101807 C25.2327615 135.48470524 26.26148247 135.48839241 27.3213768 135.49219131 C30.7266497 134.86647966 31.90765098 133.71068453 34 131 C34.58339484 127.86615914 34.58339484 127.86615914 34.4609375 124.34765625 C34.46097275 123.69996277 34.461008 123.05226929 34.46104431 122.38494873 C34.45414777 120.27664967 34.4163556 118.17038496 34.375 116.0625 C34.35791819 114.60181125 34.34123771 113.14111775 34.32495117 111.68041992 C33.88656768 80.98269595 30.53572737 46.69995994 7.3125 24.125 C-18.00637497 2.83679601 -57.21882318 5.67076751 -82 26 Z " fill="#000000" transform="translate(2674,2031)"/>
<path d="M0 0 C3.63 0 7.26 0 11 0 C11 38.61 11 77.22 11 117 C48.95 117 86.9 117 126 117 C126 121.62 126 126.24 126 131 C88.05 131 50.1 131 11 131 C11.06145197 167.43422746 11.1335546 203.86836291 11.22898628 240.3025139 C11.2402537 244.60930911 11.25139227 248.91610464 11.26245117 253.22290039 C11.2657567 254.50894399 11.2657567 254.50894399 11.269129 255.82096826 C11.30444801 269.68152463 11.32934256 283.54208095 11.35034702 297.40266556 C11.37215215 311.63754007 11.40524709 325.87235646 11.44870156 340.10718149 C11.4751373 348.88237915 11.49289206 357.65750448 11.49934604 366.43273997 C11.50462475 372.45999957 11.52092438 378.48716837 11.54566566 384.51437921 C11.55959618 387.98556341 11.56888346 391.45658537 11.56500816 394.92779922 C10.67048745 421.41203895 10.67048745 421.41203895 21.375 444.75 C33.08301594 454.78544223 46.22270787 455.02724799 61 454 C74.89402331 452.27875381 86.33544194 444.80164399 96 435 C96.62390625 434.38640625 97.2478125 433.7728125 97.890625 433.140625 C105.90079868 424.69746896 111.01756535 413.39604152 116 403 C117.39613065 403.14295891 118.79189308 403.28951558 120.1875 403.4375 C120.96480469 403.51871094 121.74210937 403.59992187 122.54296875 403.68359375 C125.06001996 404.00772912 127.5177143 404.47532505 130 405 C123.79812983 427.27777048 109.04624581 446.13969221 88.96337891 457.64135742 C59.18531497 473.85536114 22.03325644 473.12940238 -10.06640625 464.55078125 C-20.51524365 461.46441185 -30.85532847 456.29703603 -39 449 C-39.67289063 448.40703125 -40.34578125 447.8140625 -41.0390625 447.203125 C-54.7718635 434.3446971 -59.65713775 416.42077267 -60.26964378 398.09170341 C-60.40584627 391.06434674 -60.37176034 384.03774616 -60.34057617 377.00952148 C-60.33972852 374.31738383 -60.34007617 371.62527066 -60.34190369 368.93313599 C-60.3434658 363.17008171 -60.33416892 357.40713046 -60.31719017 351.6441021 C-60.29265891 343.31206689 -60.28498058 334.98008076 -60.2812262 326.64801336 C-60.27468368 313.12509601 -60.25478271 299.60223339 -60.22631836 286.0793457 C-60.19872051 272.95434846 -60.17751507 259.82936616 -60.16479492 246.7043457 C-60.16400675 245.89336221 -60.16321858 245.08237872 -60.16240653 244.24681997 C-60.15849101 240.17776939 -60.15469998 236.10871871 -60.15097082 232.03966796 C-60.11994352 198.35973012 -60.06467782 164.67989421 -60 131 C-83.76 131 -107.52 131 -132 131 C-132 126.38 -132 121.76 -132 117 C-130.01806641 116.94392578 -130.01806641 116.94392578 -127.99609375 116.88671875 C-97.35064003 115.8588974 -68.02582628 112.08177037 -43 93 C-41.89205078 92.17048828 -41.89205078 92.17048828 -40.76171875 91.32421875 C-14.29699699 69.95090639 -6.31637041 31.43323156 0 0 Z " fill="#000000" transform="translate(1481,1928)"/>
<path d="M0 0 C0.66 0 1.32 0 2 0 C2 114.18 2 228.36 2 346 C24.11 346 46.22 346 69 346 C69 350.95 69 355.9 69 361 C1.68 361 -65.64 361 -135 361 C-135 356.05 -135 351.1 -135 346 C-113.22 346 -91.44 346 -69 346 C-69 242.38 -69 138.76 -69 32 C-90.78 32 -112.56 32 -135 32 C-135 27.38 -135 22.76 -135 18 C-133.44050377 17.98786972 -133.44050377 17.98786972 -131.84950256 17.97549438 C-121.98016349 17.89750765 -112.11095344 17.80964325 -102.2417841 17.71247292 C-97.16976131 17.66284215 -92.09775609 17.61651352 -87.02563477 17.578125 C-82.11717854 17.54084712 -77.20888247 17.49438151 -72.30056572 17.44193649 C-70.44182627 17.42361537 -68.58305279 17.40842836 -66.72426033 17.39665604 C-30.55047141 17.18460927 -30.55047141 17.18460927 0 0 Z " fill="#000000" transform="translate(2369,2027)"/>
<path d="M0 0 C10.35701382 7.61545134 17.21794374 17.55896203 19.25 30.375 C20.37948088 42.96593444 17.30428248 54.54952114 9.25 64.375 C1.73141543 73.30331918 -7.75081923 78.6606391 -19.51171875 79.7109375 C-33.76516911 79.85276288 -44.84367144 76.67452375 -55.52734375 66.71875 C-64.40236131 57.14366744 -67.38227408 45.22452472 -67.0625 32.45703125 C-66.53539153 23.05034142 -62.97620256 15.33465574 -56.75 8.375 C-55.986875 7.50875 -55.22375 6.6425 -54.4375 5.75 C-38.83780303 -8.03577872 -18.24505915 -11.16914925 0 0 Z " fill="#000000" transform="translate(2359.75,1840.625)"/>
<path d="M0 0 C67.32 0 134.64 0 204 0 C204 4.95 204 9.9 204 15 C136.68 15 69.36 15 0 15 C0 10.05 0 5.1 0 0 Z " fill="#000000" transform="translate(1994,2373)"/>
<path d="M0 0 C27.06 0 54.12 0 82 0 C82 2.31 82 4.62 82 7 C54.94 7 27.88 7 0 7 C0 4.69 0 2.38 0 0 Z " fill="#000000" transform="translate(2060,2319)"/>
<path d="M0 0 C27.06 0 54.12 0 82 0 C82 2.31 82 4.62 82 7 C54.94 7 27.88 7 0 7 C0 4.69 0 2.38 0 0 Z " fill="#000000" transform="translate(2060,2211)"/>
<path d="M0 0 C27.06 0 54.12 0 82 0 C82 2.31 82 4.62 82 7 C54.94 7 27.88 7 0 7 C0 4.69 0 2.38 0 0 Z " fill="#000000" transform="translate(2060,2107)"/>
<path d="M0 0 C27.06 0 54.12 0 82 0 C82 2.31 82 4.62 82 7 C54.94 7 27.88 7 0 7 C0 4.69 0 2.38 0 0 Z " fill="#000000" transform="translate(2060,2006)"/>
<path d="M0 0 C27.06 0 54.12 0 82 0 C82 2.31 82 4.62 82 7 C54.94 7 27.88 7 0 7 C0 4.69 0 2.38 0 0 Z " fill="#000000" transform="translate(2060,1904)"/>
<path d="M0 0 C27.06 0 54.12 0 82 0 C82 2.31 82 4.62 82 7 C54.94 7 27.88 7 0 7 C0 4.69 0 2.38 0 0 Z " fill="#000000" transform="translate(2060,1792)"/>
<path d="M0 0 C14.85 0 29.7 0 45 0 C45 2.64 45 5.28 45 8 C30.15 8 15.3 8 0 8 C0 5.36 0 2.72 0 0 Z " fill="#000000" transform="translate(2060,2045)"/>
<path d="M0 0 C14.85 0 29.7 0 45 0 C45 2.64 45 5.28 45 8 C30.15 8 15.3 8 0 8 C0 5.36 0 2.72 0 0 Z " fill="#000000" transform="translate(2060,1964)"/>
<path d="M0 0 C14.85 0 29.7 0 45 0 C45 2.64 45 5.28 45 8 C30.15 8 15.3 8 0 8 C0 5.36 0 2.72 0 0 Z " fill="#000000" transform="translate(2060,1823)"/>
<path d="M0 0 C14.85 0 29.7 0 45 0 C45 2.31 45 4.62 45 7 C30.15 7 15.3 7 0 7 C0 4.69 0 2.38 0 0 Z " fill="#000000" transform="translate(2060,2347)"/>
<path d="M0 0 C14.85 0 29.7 0 45 0 C45 2.31 45 4.62 45 7 C30.15 7 15.3 7 0 7 C0 4.69 0 2.38 0 0 Z " fill="#000000" transform="translate(2060,2292)"/>
<path d="M0 0 C14.85 0 29.7 0 45 0 C45 2.31 45 4.62 45 7 C30.15 7 15.3 7 0 7 C0 4.69 0 2.38 0 0 Z " fill="#000000" transform="translate(2060,2273)"/>
<path d="M0 0 C14.85 0 29.7 0 45 0 C45 2.31 45 4.62 45 7 C30.15 7 15.3 7 0 7 C0 4.69 0 2.38 0 0 Z " fill="#000000" transform="translate(2060,2255)"/>
<path d="M0 0 C14.85 0 29.7 0 45 0 C45 2.31 45 4.62 45 7 C30.15 7 15.3 7 0 7 C0 4.69 0 2.38 0 0 Z " fill="#000000" transform="translate(2060,2237)"/>
<path d="M0 0 C14.85 0 29.7 0 45 0 C45 2.31 45 4.62 45 7 C30.15 7 15.3 7 0 7 C0 4.69 0 2.38 0 0 Z " fill="#000000" transform="translate(2060,2184)"/>
<path d="M0 0 C14.85 0 29.7 0 45 0 C45 2.31 45 4.62 45 7 C30.15 7 15.3 7 0 7 C0 4.69 0 2.38 0 0 Z " fill="#000000" transform="translate(2060,2164)"/>
<path d="M0 0 C14.85 0 29.7 0 45 0 C45 2.31 45 4.62 45 7 C30.15 7 15.3 7 0 7 C0 4.69 0 2.38 0 0 Z " fill="#000000" transform="translate(2060,2149)"/>
<path d="M0 0 C14.85 0 29.7 0 45 0 C45 2.31 45 4.62 45 7 C30.15 7 15.3 7 0 7 C0 4.69 0 2.38 0 0 Z " fill="#000000" transform="translate(2060,2130)"/>
<path d="M0 0 C14.85 0 29.7 0 45 0 C45 2.31 45 4.62 45 7 C30.15 7 15.3 7 0 7 C0 4.69 0 2.38 0 0 Z " fill="#000000" transform="translate(2060,2084)"/>
<path d="M0 0 C14.85 0 29.7 0 45 0 C45 2.31 45 4.62 45 7 C30.15 7 15.3 7 0 7 C0 4.69 0 2.38 0 0 Z " fill="#000000" transform="translate(2060,2064)"/>
<path d="M0 0 C14.85 0 29.7 0 45 0 C45 2.31 45 4.62 45 7 C30.15 7 15.3 7 0 7 C0 4.69 0 2.38 0 0 Z " fill="#000000" transform="translate(2060,2030)"/>
<path d="M0 0 C14.85 0 29.7 0 45 0 C45 2.31 45 4.62 45 7 C30.15 7 15.3 7 0 7 C0 4.69 0 2.38 0 0 Z " fill="#000000" transform="translate(2060,1984)"/>
<path d="M0 0 C14.85 0 29.7 0 45 0 C45 2.31 45 4.62 45 7 C30.15 7 15.3 7 0 7 C0 4.69 0 2.38 0 0 Z " fill="#000000" transform="translate(2060,1947)"/>
<path d="M0 0 C14.85 0 29.7 0 45 0 C45 2.31 45 4.62 45 7 C30.15 7 15.3 7 0 7 C0 4.69 0 2.38 0 0 Z " fill="#000000" transform="translate(2060,1925)"/>
<path d="M0 0 C14.85 0 29.7 0 45 0 C45 2.31 45 4.62 45 7 C30.15 7 15.3 7 0 7 C0 4.69 0 2.38 0 0 Z " fill="#000000" transform="translate(2060,1880)"/>
<path d="M0 0 C14.85 0 29.7 0 45 0 C45 2.31 45 4.62 45 7 C30.15 7 15.3 7 0 7 C0 4.69 0 2.38 0 0 Z " fill="#000000" transform="translate(2060,1860)"/>
<path d="M0 0 C14.85 0 29.7 0 45 0 C45 2.31 45 4.62 45 7 C30.15 7 15.3 7 0 7 C0 4.69 0 2.38 0 0 Z " fill="#000000" transform="translate(2060,1840)"/>
<path d="M0 0 C14.85 0 29.7 0 45 0 C45 2.31 45 4.62 45 7 C30.15 7 15.3 7 0 7 C0 4.69 0 2.38 0 0 Z " fill="#000000" transform="translate(2060,1769)"/>
</svg>
