<?xml version="1.0" encoding="UTF-8"?>
<svg version="1.1" xmlns="http://www.w3.org/2000/svg" width="800" height="243">
<path d="M0 0 C3.03852705 1.40976705 5.5939595 3.08870228 8.25 5.125 C8.95640625 5.66382812 9.6628125 6.20265625 10.390625 6.7578125 C10.92171875 7.16773437 11.4528125 7.57765625 12 8 C11.0409375 9.36125 11.0409375 9.36125 10.0625 10.75 C7.85808125 14.19129997 7.85808125 14.19129997 7 18 C7.639375 19.093125 8.27875 20.18625 8.9375 21.3125 C12.23267805 27.47655684 11.8420697 34.22062533 11 41 C9.33789434 46.01169263 7.0815199 50.54219762 3 54 C2.34 54 1.68 54 1 54 C2.11375 55.051875 2.11375 55.051875 3.25 56.125 C9.55504159 62.71663439 11.38819748 67.86454403 11.26953125 76.796875 C10.68082986 83.79303649 8.38129198 89.10923708 3.25 93.9375 C-4.46377576 99.97498563 -13.15127067 101.51955878 -22.83203125 100.78515625 C-31.21804349 99.55364396 -38.12791523 96.79729451 -43.4375 90 C-47.34194066 84.21364058 -48 81.30758201 -48 74 C-43.05 74 -38.1 74 -33 74 C-32.46375 75.258125 -31.9275 76.51625 -31.375 77.8125 C-29.87194366 80.77147851 -29.04375162 81.96744065 -26.3125 84 C-20.76873753 85.67358867 -16.12777639 85.7092588 -10.625 83.875 C-7.3614926 81.54392329 -6.26543101 79.79629302 -5 76 C-5.0726779 72.36610485 -5.51633156 70.62185943 -7.75 67.75 C-12.26530202 64.23809843 -16.71087832 63.68573435 -22.3125 63.125 C-31.68757729 61.99391597 -37.52594134 59.64623166 -43.5234375 52.18359375 C-49.10929367 43.92302868 -49.08548925 34.03439603 -47.6015625 24.41796875 C-45.70742118 17.39488633 -40.8833707 11.54912037 -34.83984375 7.58203125 C-29.22233647 4.67352748 -24.46998027 3.8466128 -18.125 3.8125 C-16.93132812 3.79832031 -15.73765625 3.78414063 -14.5078125 3.76953125 C-11.00075978 3.99995008 -8.26429911 4.73720539 -5 6 C-3.35 4.02 -1.7 2.04 0 0 Z M-29 22 C-32.79790998 27.0489862 -33.78597746 31.81042749 -33 38 C-31.09154777 43.26432609 -28.11789013 46.58590088 -23 49 C-18.22530321 49.83150016 -14.94709684 49.49108725 -10.625 47.25 C-6.77287965 43.94818255 -4.37482089 41.17061605 -3.76171875 35.984375 C-3.56516089 30.06694876 -4.52715605 26.82339437 -8 22 C-11.21958021 19.0731089 -13.89130036 18.10660573 -18.25 17.6875 C-22.62890831 18.05240903 -25.72222621 19.11166468 -29 22 Z " fill="#0F0F0F" transform="translate(251,78)"/>
<path d="M0 0 C6.45617842 4.76746271 9.42187828 11.02586045 10.73217773 18.81079102 C11.20947832 22.73763877 11.32267708 26.5765186 11.29296875 30.5234375 C11.2915538 31.24600235 11.29013885 31.9685672 11.28868103 32.71302795 C11.28313475 34.9949274 11.2705927 37.27672454 11.2578125 39.55859375 C11.25279054 41.11653503 11.24822886 42.67447787 11.24414062 44.23242188 C11.23403873 48.02871586 11.21445352 51.82479184 11.1953125 55.62109375 C5.9153125 55.62109375 0.6353125 55.62109375 -4.8046875 55.62109375 C-4.84207031 53.16414063 -4.87945312 50.7071875 -4.91796875 48.17578125 C-4.96424786 45.78278969 -5.01545812 43.3899506 -5.06713867 40.99707031 C-5.10028768 39.34058991 -5.12835059 37.68399929 -5.15112305 36.02734375 C-5.18485482 33.63884741 -5.23717709 31.25135204 -5.29296875 28.86328125 C-5.29935867 28.12866669 -5.3057486 27.39405212 -5.31233215 26.63717651 C-5.44568546 21.91943445 -6.3271308 18.63840689 -8.8046875 14.62109375 C-12.21916145 11.69440179 -15.31692181 11.08292234 -19.8125 11.26953125 C-24.08778045 12.02399251 -26.86422649 14.39348407 -29.44067383 17.7565918 C-31.19175278 21.43395163 -31.28191271 24.77222939 -31.31640625 28.765625 C-31.33435745 29.53541183 -31.35230865 30.30519867 -31.37080383 31.09831238 C-31.42474137 33.54335139 -31.45874823 35.98819707 -31.4921875 38.43359375 C-31.52537532 40.09703201 -31.55986634 41.76044482 -31.59570312 43.42382812 C-31.68289941 47.48960857 -31.74310496 51.55452278 -31.8046875 55.62109375 C-37.0846875 55.62109375 -42.3646875 55.62109375 -47.8046875 55.62109375 C-47.8046875 36.48109375 -47.8046875 17.34109375 -47.8046875 -2.37890625 C-43.1846875 -2.37890625 -38.5646875 -2.37890625 -33.8046875 -2.37890625 C-33.1446875 -0.72890625 -32.4846875 0.92109375 -31.8046875 2.62109375 C-31.27359375 2.27175781 -30.7425 1.92242187 -30.1953125 1.5625 C-29.48890625 1.10746094 -28.7825 0.65242188 -28.0546875 0.18359375 C-27.35859375 -0.26886719 -26.6625 -0.72132812 -25.9453125 -1.1875 C-17.96699722 -5.62798569 -7.67804751 -4.35747712 0 0 Z " fill="#141414" transform="translate(183.8046875,86.37890625)"/>
<path d="M0 0 C5.61 0 11.22 0 17 0 C17 22.11 17 44.22 17 67 C30.86 67 44.72 67 59 67 C59 71.95 59 76.9 59 82 C39.53 82 20.06 82 0 82 C0 54.94 0 27.88 0 0 Z " fill="#111111" transform="translate(42,60)"/>
<path d="M0 0 C5.61 0 11.22 0 17 0 C18.49468802 3.78568396 19.98843665 7.57172037 21.47998047 11.35864258 C21.98564607 12.64172496 22.49181504 13.9246091 22.99853516 15.20727539 C26.11543552 23.09827957 29.15424264 31.00689126 32 39 C33.92266102 36.11600846 35.01819758 33.59842099 36.2421875 30.37109375 C36.88220703 28.69370117 36.88220703 28.69370117 37.53515625 26.98242188 C37.97730469 25.81259766 38.41945313 24.64277344 38.875 23.4375 C39.74675677 21.14428821 40.61914404 18.85131599 41.4921875 16.55859375 C41.91209961 15.45499512 42.33201172 14.35139648 42.76464844 13.21435547 C44.46468504 8.79090055 46.22581887 4.39419279 48 0 C53.61 0 59.22 0 65 0 C64.30459853 3.47700733 63.76123751 5.89044582 62.42114258 9.01733398 C62.10023148 9.77259872 61.77932037 10.52786346 61.44868469 11.30601501 C61.10081406 12.111241 60.75294342 12.91646698 60.39453125 13.74609375 C60.03284348 14.59365738 59.6711557 15.44122101 59.29850769 16.31446838 C58.1409744 19.02408323 56.97685218 21.73080933 55.8125 24.4375 C55.0483912 26.22312038 54.2847151 28.008926 53.52148438 29.79492188 C51.69090011 34.07576162 49.85516757 38.35436596 48.01715088 42.63201904 C46.49223937 46.18209355 44.97074909 49.73363168 43.44921875 53.28515625 C42.64097656 55.17105469 41.83273437 57.05695313 41 59 C35.39 59 29.78 59 24 59 C5.26831055 15.29272461 5.26831055 15.29272461 4.08334351 12.51608276 C3.41043768 10.95324812 2.72781953 9.39451216 2.03018188 7.84255981 C0.76788523 5.02112094 0 3.13470445 0 0 Z " fill="#111111" transform="translate(267,84)"/>
<path d="M0 0 C6.82731297 4.80563292 11.57779095 10.16604044 13.57421875 18.35546875 C15.20184364 28.46466186 14.31730596 38.06920782 8.83203125 46.875 C4.13525961 52.95496329 -2.04445918 56.18951435 -9.5078125 57.41015625 C-19.3668323 58.60477286 -25.96854303 57.17865904 -34.15234375 51.53515625 C-36 50 -36 50 -38 47 C-38.33 58.22 -38.66 69.44 -39 81 C-41.31 81 -43.62 81 -46 81 C-46 53.61 -46 26.22 -46 -2 C-43.69 -2 -41.38 -2 -39 -2 C-38.67 0.97 -38.34 3.94 -38 7 C-36.96875 6.071875 -35.9375 5.14375 -34.875 4.1875 C-25.3074402 -4.00774314 -11.35736134 -6.12969502 0 0 Z M-33.33984375 11.16796875 C-37.67710509 15.95426421 -38.76993692 21.00917995 -39.25 27.25 C-38.82326445 33.65103329 -37.1200905 39.83872036 -32.6328125 44.6484375 C-26.9056289 49.38912058 -20.82358373 51.77966878 -13.38671875 51.359375 C-7.45115677 50.46564063 -2.17806364 48.40390492 2 44 C7.58412272 36.00945976 8.22388906 28.1079711 6.59375 18.640625 C4.71573024 12.26524212 -0.3640454 8.12218067 -5.9609375 4.85546875 C-16.18588614 0.56569145 -25.65324261 3.90924998 -33.33984375 11.16796875 Z " fill="#252525" transform="translate(578,86)"/>
<path d="M0 0 C7.99723472 4.54388337 12.1793962 9.83779859 14.75 18.484375 C15.23862053 22.68651152 15.0625 26.94142569 15.0625 31.171875 C-2.0975 31.171875 -19.2575 31.171875 -36.9375 31.171875 C-32.86779747 42.84245676 -32.86779747 42.84245676 -23.87109375 49.23046875 C-17.2367434 51.90082444 -10.23484846 51.86391171 -3.56640625 49.23828125 C-2.2231324 48.56541196 -0.89545476 47.85950995 0.40625 47.109375 C2.0625 46.171875 2.0625 46.171875 5.0625 45.171875 C5.0625 44.511875 5.0625 43.851875 5.0625 43.171875 C6.9375 43.421875 6.9375 43.421875 9.0625 44.171875 C10.1953125 46.21875 10.1953125 46.21875 11.0625 48.171875 C2.89067808 55.98840032 -4.7077427 58.77318247 -16.02832031 58.64892578 C-23.88551044 58.3182737 -31.42740214 55.98808941 -36.9375 50.171875 C-43.56953457 40.45139297 -44.76985417 32.83672415 -43.9375 21.171875 C-42.33035643 13.92036575 -38.51684245 8.04255097 -32.9375 3.171875 C-23.47211471 -2.83098883 -10.52996026 -4.22793859 0 0 Z M-31.875 12.109375 C-35.37436776 16.47548431 -36.9375 19.49620061 -36.9375 25.171875 C-22.0875 25.171875 -7.2375 25.171875 8.0625 25.171875 C7.17115457 15.95869154 7.17115457 15.95869154 2.0625 9.171875 C-8.75706836 1.20847905 -22.78189552 2.17083725 -31.875 12.109375 Z " fill="#212121" transform="translate(645.9375,84.828125)"/>
<path d="M0 0 C6.28865694 4.46761729 9.53701809 10.47609304 11 18 C11 21.63 11 25.26 11 29 C-6.16 29 -23.32 29 -41 29 C-36.93029747 40.67058176 -36.93029747 40.67058176 -27.93359375 47.05859375 C-21.05196602 49.82847969 -14.08589988 49.64698492 -7.21875 46.87890625 C-4.76044105 45.66059726 -2.3807676 44.3622574 0 43 C1.32921834 42.32516607 2.66122257 41.65566548 4 41 C4.99 41.99 5.98 42.98 7 44 C4.88985202 49.37128577 0.71673166 51.84949279 -4.3125 54.25 C-12.67557812 57.40021777 -23.05097759 57.42064972 -31.5 54.5 C-38.25514845 51.24752112 -43.27884648 46.2064275 -46.5 39.4375 C-49.63554656 30.35281377 -49.39423993 19.84355985 -45.25390625 11.14453125 C-40.97128561 3.82004923 -35.29352621 -0.88871023 -27.171875 -3.61328125 C-17.98234608 -5.24954629 -8.08958778 -4.94200272 0 0 Z M-37.58984375 11.51171875 C-39.65420493 14.87150842 -39.65420493 14.87150842 -41 23 C-25.82 23 -10.64 23 5 23 C2.85748621 12.88700815 2.85748621 12.88700815 -3.7421875 5.71484375 C-15.81518449 -1.51340981 -28.43303165 1.40242501 -37.58984375 11.51171875 Z " fill="#202020" transform="translate(452,87)"/>
<path d="M0 0 C5.99324367 4.92777813 11.43066253 10.4447407 12.8125 18.3125 C13.41568543 26.12842387 13.85951484 33.39884965 9.8125 40.3125 C5.06760204 36.17592229 5.06760204 36.17592229 4 32.5625 C3.8125 29.3125 3.8125 29.3125 3.94140625 27.28125 C4.30209814 20.67244374 2.73949259 15.69567406 -1.1875 10.3125 C-6.78132279 5.55666234 -12.29799814 3.93995187 -19.5546875 4.03515625 C-25.2481121 4.63490869 -28.97158293 7.12360331 -33 11.0625 C-37.05981818 17.09422986 -38.84241416 21.91138652 -37.7109375 29.203125 C-36.97507638 32.16853549 -35.69771593 34.66962212 -34.1875 37.3125 C-33.8575 38.3025 -33.5275 39.2925 -33.1875 40.3125 C-31.43882517 41.39681094 -31.43882517 41.39681094 -29.1875 42.3125 C-28.3625 42.84875 -27.5375 43.385 -26.6875 43.9375 C-20.91242441 46.20627969 -14.58655178 46.48240619 -8.66796875 44.4453125 C-5.19112807 42.73240827 -5.19112807 42.73240827 -2.1875 40.3125 C5.33488806 40.07369403 5.33488806 40.07369403 7.8125 41.3125 C6.48465877 46.95582522 2.48822745 49.41204875 -2.1875 52.3125 C-9.3992141 56.39862977 -18.01657742 56.53432137 -25.96484375 54.65625 C-33.9684465 51.79517783 -39.98510446 47.01431196 -44.125 39.5625 C-47.76882316 31.45006939 -48.27270967 22.68884426 -45.1875 14.3125 C-41.7702979 6.9407132 -35.95588989 0.79996014 -28.5 -2.5625 C-18.38651157 -5.99726966 -9.4108952 -4.98223864 0 0 Z " fill="#1E1E1E" transform="translate(380.1875,85.6875)"/>
<path d="M0 0 C2.92909019 -0.30193597 5.14327908 -0.50911202 8 0 C10.22320705 2.06773802 11.56521884 3.59822876 13.1875 6.0625 C13.60821777 6.65651611 14.02893555 7.25053223 14.46240234 7.86254883 C15.28942412 9.03451015 16.10593143 10.21397712 16.91064453 11.40136719 C18.25598101 13.37565299 19.69044494 15.27746918 21.125 17.1875 C23 20 23 20 23 22 C26.12306966 19.15618292 28.52140592 16.35887248 30.796875 12.79296875 C31.2815625 12.04208984 31.76625 11.29121094 32.265625 10.51757812 C33.25962966 8.95725239 34.23356456 7.38396813 35.1875 5.79882812 C38.84113025 0.24627163 38.84113025 0.24627163 42.39648438 -0.50927734 C44.657791 -0.51149084 46.77075312 -0.36687354 49 0 C45.37892109 6.83170807 40.71675141 12.59440102 35.86914062 18.59179688 C35.25876953 19.35943359 34.64839844 20.12707031 34.01953125 20.91796875 C33.46370361 21.60656982 32.90787598 22.2951709 32.33520508 23.00463867 C30.91318164 25.12974336 30.17968769 26.44588994 30 29 C31.0358552 31.15395864 31.0358552 31.15395864 32.71875 33.23046875 C33.32203125 34.03419922 33.9253125 34.83792969 34.546875 35.66601562 C35.19140625 36.49810547 35.8359375 37.33019531 36.5 38.1875 C37.11359375 39.00025391 37.7271875 39.81300781 38.359375 40.65039062 C40.88584167 43.98628202 43.44543045 47.29439024 46.03125 50.58447266 C46.670625 51.39835449 47.31 52.21223633 47.96875 53.05078125 C48.55076172 53.78594971 49.13277344 54.52111816 49.73242188 55.27856445 C51 57 51 57 51 58 C47.88361007 58.47372259 45.10504582 58.60797658 42 58 C39.29517856 55.90043778 37.60114463 53.29218635 35.75 50.4375 C35.26015625 49.73302734 34.7703125 49.02855469 34.265625 48.30273438 C32.81998689 46.21694003 31.40929261 44.11046041 30 42 C27.13369759 37.32918277 27.13369759 37.32918277 23 34 C22.77054687 34.51820312 22.54109375 35.03640625 22.3046875 35.5703125 C20.5292877 38.87659595 18.32961936 41.84766554 16.125 44.875 C15.25166392 46.0800483 14.37925831 47.28577152 13.5078125 48.4921875 C13.08177734 49.07500488 12.65574219 49.65782227 12.21679688 50.25830078 C11.05305134 51.92406335 10.01084415 53.67278093 8.9765625 55.421875 C7 58 7 58 4.640625 58.5859375 C3.85171875 58.51632813 3.0628125 58.44671875 2.25 58.375 C1.45078125 58.32085937 0.6515625 58.26671875 -0.171875 58.2109375 C-0.77515625 58.14132813 -1.3784375 58.07171875 -2 58 C1.13494001 52.11511261 4.92220797 47.02763419 9.0625 41.8125 C10.3035918 40.23583952 11.54448422 38.65902206 12.78515625 37.08203125 C13.33051025 36.39343018 13.87586426 35.7048291 14.43774414 34.99536133 C15.98667533 33.01701868 17.49958771 31.01530664 19 29 C17.57037471 25.92950044 15.86616284 23.31039767 13.84765625 20.59375 C13.23599609 19.76746094 12.62433594 18.94117187 11.99414062 18.08984375 C11.35669922 17.23519531 10.71925781 16.38054687 10.0625 15.5 C9.42892578 14.64535156 8.79535156 13.79070312 8.14257812 12.91015625 C4.76711795 8.34280117 4.76711795 8.34280117 1.29467773 3.84960938 C0 2 0 2 0 0 Z " fill="#242424" transform="translate(472,84)"/>
<path d="M0 0 C4.95 0 9.9 0 15 0 C15 19.14 15 38.28 15 58 C10.05 58 5.1 58 0 58 C0 38.86 0 19.72 0 0 Z " fill="#080808" transform="translate(110,84)"/>
<path d="M0 0 C0 5.94 0 11.88 0 18 C6.6 18 13.2 18 20 18 C20 19.98 20 21.96 20 24 C13.4 24 6.8 24 0 24 C0.0741353 29.44511004 0.1570852 34.88861799 0.26245117 40.33300781 C0.29562296 42.18350819 0.32367887 44.03410786 0.34643555 45.88476562 C0.3801245 48.55121003 0.4324466 51.2167509 0.48828125 53.8828125 C0.49467117 54.70492218 0.5010611 55.52703186 0.50764465 56.37405396 C0.63166761 61.26348013 1.21372548 64.80476879 4 69 C9.34425837 70.78141946 14.54780241 70.06384343 20 69 C20.66 70.65 21.32 72.3 22 74 C16.33043258 77.77971161 10.65525432 77.64907013 4 77 C-0.80853402 75.54026646 -2.76622795 73.5007412 -5.17077637 69.11422729 C-6.730351 65.13786299 -6.4868469 61.12554385 -6.390625 56.91015625 C-6.38496521 55.96563095 -6.37930542 55.02110565 -6.37347412 54.04795837 C-6.35121071 51.05227444 -6.30103331 48.05781805 -6.25 45.0625 C-6.22992202 43.02280382 -6.21167353 40.98308876 -6.1953125 38.94335938 C-6.15137883 33.96177174 -6.0824212 28.98109348 -6 24 C-10.29 24 -14.58 24 -19 24 C-19 22.02 -19 20.04 -19 18 C-14.71 18 -10.42 18 -6 18 C-6 12.39 -6 6.78 -6 1 C-3 0 -3 0 0 0 Z " fill="#181818" transform="translate(738,66)"/>
<path d="M0 0 C-0.8125 2.4375 -0.8125 2.4375 -2 5 C-5 6 -5 6 -8 5 C-13.63049385 4.45308897 -19.63401809 3.97561352 -24.38305664 7.49145508 C-29.64012383 12.39609319 -31.23617023 18.68339845 -31.62597656 25.63467407 C-31.76454817 29.79865695 -31.79940189 33.95900789 -31.8125 38.125 C-31.83567959 39.86201008 -31.86105203 41.59899235 -31.88867188 43.3359375 C-31.9510781 47.55739562 -31.98376446 51.77812218 -32 56 C-34.31 56 -36.62 56 -39 56 C-39 36.86 -39 17.72 -39 -2 C-36.69 -2 -34.38 -2 -32 -2 C-31.67 -0.02 -31.34 1.96 -31 4 C-30.34 3.401875 -29.68 2.80375 -29 2.1875 C-19.80426815 -4.51772114 -10.19746996 -4.53220887 0 0 Z " fill="#262626" transform="translate(713,86)"/>
<path d="M0 0 C2.4375 1.5625 2.4375 1.5625 4 4 C4.7099846 8.9698922 4.79117716 10.84919686 1.9375 15 C-1.76272533 17.51930235 -3.6031656 17.7066341 -8 17 C-10.875 15.4375 -10.875 15.4375 -13 13 C-14.14009771 9.08091414 -14.40888632 6.96841496 -12.8125 3.1875 C-8.93950162 -1.48680839 -5.82788101 -1.45697025 0 0 Z " fill="#1B1B1B" transform="translate(122,60)"/>
<path d="M0 0 C2.5 0.125 2.5 0.125 3.5 1.125 C3.6875 3.5625 3.6875 3.5625 3.5 6.125 C2.84 6.785 2.18 7.445 1.5 8.125 C-2.03571429 7.58928571 -2.03571429 7.58928571 -3.5 6.125 C-3.625 3.625 -3.625 3.625 -3.5 1.125 C-2.5 0.125 -2.5 0.125 0 0 Z " fill="#3A3A3A" transform="translate(354.5,109.875)"/>
<path d="M0 0 C2.625 0.9375 2.625 0.9375 5 2 C5.042721 3.66611905 5.04063832 5.33382885 5 7 C4 8 4 8 1.5 8.125 C-1 8 -1 8 -2 7 C-2.04080783 5.00041636 -2.04254356 2.99954746 -2 1 C-1.34 0.67 -0.68 0.34 0 0 Z " fill="#3A3A3A" transform="translate(371,105)"/>
<path d="M0 0 C1.98 0 3.96 0 6 0 C6.625 2.375 6.625 2.375 7 5 C6.34 5.66 5.68 6.32 5 7 C2.375 6.625 2.375 6.625 0 6 C-1.125 2.25 -1.125 2.25 0 0 Z " fill="#363636" transform="translate(360,108)"/>
<path d="M0 0 C0.33 0 0.66 0 1 0 C1.33 2.97 1.66 5.94 2 9 C3.65 7.35 5.3 5.7 7 4 C7.99 4.33 8.98 4.66 10 5 C8.90220176 6.15193623 7.79650554 7.29634937 6.6875 8.4375 C6.07261719 9.07558594 5.45773437 9.71367188 4.82421875 10.37109375 C3 12 3 12 0 13 C0 8.71 0 4.42 0 0 Z " fill="#5F5F5F" transform="translate(538,84)"/>
<path d="M0 0 C0.66 0.33 1.32 0.66 2 1 C-1.3 4.3 -4.6 7.6 -8 11 C-8 6.67750434 -5.85084926 5.11604454 -3 2 C-2.01 1.34 -1.02 0.68 0 0 Z " fill="#4E4E4E" transform="translate(417,87)"/>
<path d="M0 0 C0.99 0.33 1.98 0.66 3 1 C0.36 3.64 -2.28 6.28 -5 9 C-5.33 8.01 -5.66 7.02 -6 6 C-4.02 4.02 -2.04 2.04 0 0 Z " fill="#4E4E4E" transform="translate(613,88)"/>
</svg>
