<?xml version="1.0" encoding="UTF-8"?>
<svg version="1.1" xmlns="http://www.w3.org/2000/svg" width="2249" height="305">
<path d="M0 0 C23.1 0 46.2 0 70 0 C75.28 7.59 80.56 15.18 86 23 C93.13153639 33.2054745 100.27472281 43.40162028 107.46191406 53.56787109 C111.92463897 59.8839116 116.35740038 66.22073635 120.7890625 72.55859375 C124.51284248 77.88179464 128.24976159 83.19541119 132 88.5 C139.30053436 98.82803019 146.54358566 109.19619694 153.79101562 119.56152344 C160.32850038 128.91048387 166.8758133 138.25200655 173.46142578 147.56713867 C177.91546592 153.87101255 182.34001692 160.19533999 186.76269531 166.52124023 C191.24588164 172.93069813 195.75018618 179.3249738 200.26953125 185.70898438 C200.73230469 186.36318359 201.19507813 187.01738281 201.671875 187.69140625 C202.0750293 188.26060791 202.47818359 188.82980957 202.89355469 189.41625977 C203.9506212 190.92932033 204.9761698 192.4642547 206 194 C206.33 129.98 206.66 65.96 207 0 C228.12 0 249.24 0 271 0 C271 99.33 271 198.66 271 301 C249.55 301 228.1 301 206 301 C202.37 295.72 198.74 290.44 195 285 C193.02792273 282.1817394 191.05350194 279.36712899 189.0625 276.5625 C188.05076831 275.13282166 187.03904995 273.70313388 186.02734375 272.2734375 C185.5257373 271.56541992 185.02413086 270.85740234 184.50732422 270.12792969 C182.04362118 266.64985459 179.58378722 263.1690515 177.125 259.6875 C176.63523682 258.99406494 176.14547363 258.30062988 175.64086914 257.58618164 C171.14641109 251.21739561 166.67830874 244.83028128 162.21142578 238.44213867 C158.48751174 233.11867389 154.75045821 227.8047925 151 222.5 C146.64892398 216.34567055 142.31910656 210.17680583 138 204 C131.69302078 194.98127855 125.35353778 185.98596073 119 177 C112.04732005 167.16665814 105.11760831 157.31787176 98.21582031 147.44873047 C93.00128089 139.99507414 87.75877346 132.56146701 82.50732422 125.13378906 C80.90018942 122.85870676 79.29555498 120.58187615 77.69140625 118.3046875 C77.14693848 117.53213623 76.6024707 116.75958496 76.04150391 115.96362305 C75.00037319 114.48623163 73.95965845 113.00854695 72.91943359 111.53051758 C72.44973145 110.86431396 71.9800293 110.19811035 71.49609375 109.51171875 C71.08544678 108.92865967 70.6747998 108.34560059 70.25170898 107.74487305 C68.8630497 105.80909229 67.4294138 103.90588507 66 102 C65.67 167.67 65.34 233.34 65 301 C43.55 301 22.1 301 0 301 C0 201.67 0 102.34 0 0 Z " fill="#000000" transform="translate(321,0)"/>
<path d="M0 0 C22.11 0 44.22 0 67 0 C67.0093457 5.54022949 67.01869141 11.08045898 67.02832031 16.78857422 C67.0621502 35.1329655 67.1175338 53.47724552 67.18390274 71.82154655 C67.22360346 82.93913876 67.25604133 94.0566611 67.27099609 105.17431641 C67.28405927 114.87171716 67.31114216 124.56896361 67.35461307 134.26627743 C67.37712343 139.39436933 67.39291699 144.52227165 67.39188385 149.65041733 C67.39113103 154.4915845 67.40932823 159.33233426 67.44116783 164.17339325 C67.44958527 165.93640102 67.45147332 167.69945607 67.44580269 169.46247482 C67.38470617 191.40516856 71.53124234 210.61536682 86.953125 227.0859375 C99.19489755 238.91965097 115.2888696 243.55862429 132.03417969 243.34960938 C147.65704704 242.7908408 162.343715 237.65551305 173.6875 226.62890625 C183.68464921 215.26390385 189.39985238 202.22453292 191.10897827 187.16139221 C191.19286029 186.42849427 191.27674231 185.69559632 191.36316621 184.94048935 C192.25146043 176.54220513 192.308393 168.16711047 192.31884766 159.73022461 C192.32817497 157.97404025 192.33834765 156.21786022 192.34928894 154.46168518 C192.37628762 149.75210736 192.39164751 145.0425589 192.40471697 140.3329246 C192.42048132 135.38952358 192.44722816 130.44618143 192.4727478 125.50282288 C192.51930235 116.16776244 192.55615839 106.83269063 192.58942068 97.49757439 C192.62780815 86.85889366 192.67717404 76.22027241 192.72740483 65.58164203 C192.83037727 43.72113339 192.91830048 21.86059921 193 0 C214.45 0 235.9 0 258 0 C258.06794565 24.13220252 258.12311422 48.26432655 258.15543652 72.39660072 C258.17084894 83.603791 258.19182977 94.81091725 258.22631836 106.01806641 C258.25639415 115.79599726 258.27561577 125.57388171 258.28226548 135.35185754 C258.28614721 140.52033197 258.29514982 145.68867372 258.31719017 150.85710526 C258.50157798 195.88147488 255.07380784 236.02451503 222.1875 269.90234375 C195.52671606 296.35690257 160.56289939 305.39847449 123.9296875 305.30249023 C113.39854335 305.15614871 103.29121269 304.23442242 93 302 C92.24750977 301.83902832 91.49501953 301.67805664 90.71972656 301.51220703 C59.76362038 294.59393598 34.31304339 276.22516332 17.24511719 249.54638672 C3.57547095 227.2955749 -0.50047396 202.57205632 -0.34057617 176.87255859 C-0.33972745 174.92904168 -0.34020981 172.98552381 -0.34190369 171.04200745 C-0.34275551 165.82621069 -0.3252633 160.61062591 -0.30418181 155.39487791 C-0.28527763 149.92167996 -0.28365384 144.4484758 -0.28010559 138.97525024 C-0.27082515 128.63788258 -0.24626617 118.30061143 -0.21605712 107.96328604 C-0.18238772 96.18317894 -0.16599574 84.40306694 -0.15097082 72.62292361 C-0.11971254 48.41521677 -0.06475118 24.20764203 0 0 Z " fill="#000000" transform="translate(0,0)"/>
<path d="M0 0 C71.94 0 143.88 0 218 0 C218 19.14 218 38.28 218 58 C168.17 58 118.34 58 67 58 C67 82.42 67 106.84 67 132 C109.9 132 152.8 132 197 132 C197 150.48 197 168.96 197 188 C154.1 188 111.2 188 67 188 C67 225.29 67 262.58 67 301 C44.89 301 22.78 301 0 301 C0 201.67 0 102.34 0 0 Z " fill="#000000" transform="translate(800,0)"/>
<path d="M0 0 C25.74 0 51.48 0 78 0 C82.95 8.58 87.9 17.16 93 26 C95.65583779 30.50744301 98.31602148 35.00965541 101 39.5 C107.54225682 50.49411217 113.96028705 61.55543242 120.33984375 72.64453125 C128.39135053 86.63774588 136.5200862 100.58552766 144.8125 114.4375 C145.57759888 115.71729736 145.57759888 115.71729736 146.3581543 117.02294922 C147.05678589 118.18528076 147.05678589 118.18528076 147.76953125 119.37109375 C148.17792236 120.05099365 148.58631348 120.73089355 149.00708008 121.43139648 C149.90728031 122.98037138 149.90728031 122.98037138 151 124 C151.32049316 123.42894531 151.64098633 122.85789062 151.97119141 122.26953125 C159.92777655 108.10697856 168.02133933 94.0316199 176.23388672 80.01611328 C179.16256147 75.01461371 182.08076989 70.00701587 185 65 C186.16661606 62.99997048 187.33328274 60.99997049 188.5 59 C189.0775 58.01 189.655 57.02 190.25 56 C192 53 193.75 50 195.5 47 C196.07838623 46.00846924 196.65677246 45.01693848 197.25268555 43.99536133 C198.41035985 42.01079992 199.56807419 40.02626186 200.72583008 38.04174805 C203.78042169 32.80573605 206.83415931 27.56922829 209.88671875 22.33203125 C210.52287109 21.24083984 211.15902344 20.14964844 211.81445312 19.02539062 C213.03345952 16.93439425 214.25222235 14.84325584 215.47070312 12.75195312 C216.02048828 11.80900391 216.57027344 10.86605469 217.13671875 9.89453125 C217.61842529 9.06800049 218.10013184 8.24146973 218.59643555 7.38989258 C219.05961182 6.60122803 219.52278809 5.81256348 220 5 C220.37681915 4.13741577 220.75363831 3.27483154 221.14187622 2.3861084 C223 0 223 0 226.17008972 -0.60127258 C228.13200005 -0.584618 228.13200005 -0.584618 230.13354492 -0.56762695 C230.85574722 -0.56835709 231.57794952 -0.56908722 232.32203674 -0.56983948 C234.70894518 -0.56635619 237.09390138 -0.52746467 239.48046875 -0.48828125 C241.13526849 -0.47895565 242.79008204 -0.47183834 244.44490051 -0.46684265 C248.80018231 -0.44775264 253.1546302 -0.39863544 257.50958252 -0.34332275 C261.95353921 -0.29217294 266.39763066 -0.26933779 270.84179688 -0.24414062 C279.56158059 -0.19051786 288.28068656 -0.10518186 297 0 C295.50024726 3.86789286 293.74753546 7.26184964 291.578125 10.8046875 C291.24185593 11.35630554 290.90558685 11.90792358 290.55912781 12.47625732 C289.45963844 14.27803709 288.35485383 16.0765057 287.25 17.875 C286.47692831 19.13958715 285.70422775 20.40440125 284.93188477 21.66943359 C283.3660401 24.23319176 281.798291 26.79576948 280.22900391 29.35742188 C277.68042218 33.51938346 275.14743841 37.69075555 272.61499023 41.86254883 C266.51019286 51.9157845 260.35073164 61.93476864 254.17822266 71.9465332 C248.82203533 80.64308993 243.51815182 89.37048727 238.22592163 98.10604858 C233.17956202 106.43380315 228.08612955 114.73042116 222.94580078 123.00048828 C218.47813231 130.20031316 214.07804708 137.44050606 209.6875 144.6875 C203.84394776 154.33197697 197.97273652 163.95872625 192.0625 173.5625 C191.3821167 174.66875732 190.7017334 175.77501465 190.00073242 176.91479492 C185.26037871 184.60943194 185.26037871 184.60943194 183 188 C182.68960953 190.19195042 182.68960953 190.19195042 182.7215271 192.65068054 C182.71036362 193.60560394 182.69920013 194.56052734 182.68769836 195.54438782 C182.68445808 197.11315926 182.68445808 197.11315926 182.68115234 198.71362305 C182.67110672 199.8162146 182.6610611 200.91880615 182.65071106 202.05480957 C182.61976705 205.70710722 182.60281262 209.3593312 182.5859375 213.01171875 C182.5672349 215.54092549 182.54766218 218.07012592 182.5272522 220.59931946 C182.48108797 226.58095178 182.44371424 232.56257684 182.41057932 238.54429036 C182.36191502 247.21702698 182.29551364 255.88963078 182.23126221 264.56226349 C182.14292616 276.70813501 182.07325005 288.8539859 182 301 C160.22 301 138.44 301 116 301 C116.12503906 293.23984375 116.25007813 285.4796875 116.37890625 277.484375 C116.42026564 272.50748712 116.45647645 267.53158314 116.47460938 262.5546875 C116.50374148 254.68954562 116.5497987 246.82757972 116.7097168 238.96386719 C118.22504426 198.43216908 118.22504426 198.43216908 100.13800049 163.63179016 C96.54350098 159.20710995 93.79337431 154.29402758 90.9375 149.375 C89.80092828 147.49884062 88.66078773 145.62483425 87.515625 143.75390625 C86.65807617 142.34842529 86.65807617 142.34842529 85.78320312 140.91455078 C81.92845391 134.61416797 78.04759141 128.32982643 74.17163086 122.04248047 C68.88764229 113.4625763 63.65283724 104.85373464 58.43109131 96.23590088 C52.59799911 86.61094882 46.71544264 77.01741866 40.80859375 67.4375 C35.94559866 59.54714631 31.11800998 51.63594285 26.30810547 43.71313477 C23.13893206 38.49797629 19.95295747 33.29362756 16.74609375 28.1015625 C16.3866568 27.51924866 16.02721985 26.93693481 15.65689087 26.3369751 C13.91253415 23.51143231 12.16604895 20.68726879 10.41601562 17.86523438 C9.78244141 16.83978516 9.14886719 15.81433594 8.49609375 14.7578125 C7.66356079 13.41420654 7.66356079 13.41420654 6.81420898 12.04345703 C4.45245292 8.08145311 2.24003911 4.03207039 0 0 Z " fill="#000000" transform="translate(1036,0)"/>
<path d="M0 0 C166.95750481 0 166.95750481 0 192.375 24.875 C205.62474099 38.4155681 211.97026062 55.40052445 212.06640625 74.3203125 C211.7215955 94.15014334 204.6584279 111.47984163 191 126 C184.03977597 132.54219256 176.37289889 137.45554702 168 142 C169.21623047 142.43699219 169.21623047 142.43699219 170.45703125 142.8828125 C182.40254716 147.30501746 192.3800273 152.6052906 202 161 C202.61488281 161.51949219 203.22976562 162.03898438 203.86328125 162.57421875 C212.82224995 170.75056489 219.17022956 182.63083833 223 194 C223.31839844 194.94488281 223.63679688 195.88976562 223.96484375 196.86328125 C229.54153628 216.67724409 226.52288844 238.9752768 217 257 C203.87435691 277.69911357 183.75453559 292.16341311 159.95605469 297.85424805 C107.90996679 309.48121762 53.32899481 301 0 301 C0 201.67 0 102.34 0 0 Z M34 28 C34 61.99 34 95.98 34 131 C48.52 131.061875 63.04 131.12375 78 131.1875 C84.82945312 131.22846802 84.82945312 131.22846802 91.796875 131.27026367 C95.94530913 131.2803085 95.94530913 131.2803085 100.09375 131.28633118 C101.91473604 131.29088155 103.73571413 131.30131272 105.55664062 131.31672668 C127.81761176 131.49543484 147.37124864 129.07149605 164.25 113.1875 C173.57757912 103.40767462 177.94582052 91.43651076 178 78 C177.37161012 64.54905991 171.78290381 52.83421209 162.44921875 43.18359375 C150.46693499 32.50082402 136.0175104 27.64137459 120.16577148 27.77294922 C119.21311685 27.77270815 118.26046221 27.77246708 117.27893925 27.7722187 C114.22622567 27.77369939 111.17376305 27.78887459 108.12109375 27.8046875 C106.22400022 27.8076318 104.32690506 27.80966986 102.42980957 27.81079102 C95.43234811 27.82123351 88.43492153 27.84915605 81.4375 27.875 C65.783125 27.91625 50.12875 27.9575 34 28 Z M34 157 C34 195.28 34 233.56 34 273 C50.665 273.0825 67.33 273.165 84.5 273.25 C92.34749023 273.30462402 92.34749023 273.30462402 100.35351562 273.36035156 C105.10735562 273.37374212 105.10735562 273.37374212 109.86120605 273.3817749 C111.95303772 273.38785459 114.04485675 273.40179034 116.13659668 273.42230225 C137.98990981 273.62559459 158.36733818 271.26421241 174.82421875 255.23828125 C175.54222656 254.49964844 176.26023437 253.76101562 177 253 C177.96873047 252.06220703 177.96873047 252.06220703 178.95703125 251.10546875 C189.01610592 240.69575095 192.36663069 227.12262399 192.30297852 213.08813477 C191.9070964 197.51373104 185.83716308 185.8908124 175 175 C174.32195313 174.28714844 173.64390625 173.57429688 172.9453125 172.83984375 C156.70256655 156.93421139 135.24484022 156.55332147 113.98046875 156.70703125 C111.92859136 156.71145088 109.87671057 156.714506 107.8248291 156.71618652 C100.27900062 156.73181344 92.73324489 156.77369704 85.1875 156.8125 C59.8496875 156.9053125 59.8496875 156.9053125 34 157 Z " fill="#000000" transform="translate(2023,0)"/>
<path d="M0 0 C11.55 0 23.1 0 35 0 C35 41.58 35 83.16 35 126 C93.41 126 151.82 126 212 126 C212 84.42 212 42.84 212 0 C223.22 0 234.44 0 246 0 C246 99.33 246 198.66 246 301 C234.78 301 223.56 301 212 301 C212 253.48 212 205.96 212 157 C153.59 157 95.18 157 35 157 C35 204.52 35 252.04 35 301 C23.45 301 11.9 301 0 301 C0 201.67 0 102.34 0 0 Z " fill="#000000" transform="translate(1375,0)"/>
<path d="M0 0 C11.55 0 23.1 0 35 0 C35.01458252 5.66140137 35.02916504 11.32280273 35.04418945 17.15576172 C35.09461509 35.89927971 35.16107624 54.64271581 35.23571491 73.38615227 C35.28056199 84.74586938 35.32000189 96.10555591 35.34643555 107.46533203 C35.36950578 117.37366165 35.40300357 127.2818936 35.44870156 137.19014561 C35.4725127 142.42998937 35.49132044 147.66973713 35.49761391 152.90963364 C35.50372004 157.8557971 35.52391595 162.80171533 35.55427551 167.74778748 C35.56296811 169.54949862 35.56679689 171.35124194 35.56500816 173.15297318 C35.54499242 202.65440832 42.35250383 228.61590622 63.125 250.5625 C77.59895131 264.719648 96.95348549 271.91273142 117 273 C117.67804688 273.04125 118.35609375 273.0825 119.0546875 273.125 C141.92830482 273.8155243 162.38977609 265.89682206 179.46484375 250.82421875 C197.70796383 233.64926287 206.33323126 209.34762157 207.19337845 184.62524605 C207.30654486 179.73296369 207.31317438 174.84087677 207.31884766 169.94750977 C207.3281684 168.08324764 207.33834018 166.2189896 207.34928894 164.35473633 C207.37636134 159.34133029 207.39167006 154.32795198 207.40471697 149.31449246 C207.42044818 144.05744357 207.44720603 138.8004505 207.4727478 133.54344177 C207.51935997 123.60978366 207.55618856 113.67611483 207.58942068 103.74240392 C207.62776685 92.42421978 207.6771439 81.10609193 207.72740483 69.7879554 C207.83046319 46.52534466 207.91941647 23.26269852 208 0 C218.89 0 229.78 0 241 0 C241.069604 25.39199041 241.12306411 50.78395764 241.15543652 76.17602444 C241.17087063 87.96739905 241.19189375 99.7587131 241.22631836 111.55004883 C241.25632687 121.8337008 241.27560008 132.11730888 241.28226548 142.40100342 C241.28615841 147.84038833 241.29523452 153.27964775 241.31719017 158.71899223 C241.33773667 163.85140268 241.34379754 168.98363738 241.33932304 174.11608505 C241.3401402 175.98758338 241.34599661 177.85908833 241.35761642 179.73055077 C241.46166904 197.37251902 238.86450342 213.32226805 233 230 C232.64292969 231.02480469 232.28585937 232.04960937 231.91796875 233.10546875 C227.27722102 245.25668454 220.01508066 256.53046049 211.0078125 265.88671875 C208.93516126 267.9980068 208.93516126 267.9980068 207.0625 270.49609375 C203.33343651 275.02323333 198.61309038 278.41479284 194 282 C192.82244141 282.91845703 192.82244141 282.91845703 191.62109375 283.85546875 C165.13376606 303.44085319 131.35336433 308.27112659 99.25830078 304.22607422 C74.27397891 300.44662389 53.32007391 289.24613854 35 272 C34.09507813 271.19175781 34.09507813 271.19175781 33.171875 270.3671875 C11.5733394 250.28256795 1.74860007 218.63644737 0 190 C-0.17984767 183.77219782 -0.12674063 177.53949209 -0.11352539 171.30981445 C-0.1132429 169.43629457 -0.11340247 167.56277458 -0.1139679 165.68925476 C-0.11425344 160.63220637 -0.10839608 155.57518197 -0.10139394 150.51813912 C-0.09511986 145.22239572 -0.0945534 139.9266517 -0.09336853 134.63090515 C-0.09026714 124.61563066 -0.08206987 114.60036716 -0.07201904 104.58509749 C-0.06082082 93.17756395 -0.05533812 81.77002988 -0.05032361 70.3624922 C-0.03988622 46.90832065 -0.02155561 23.45416415 0 0 Z " fill="#000000" transform="translate(1701,0)"/>
<path d="M0 0 C22.77 0 45.54 0 69 0 C69 99.33 69 198.66 69 301 C46.23 301 23.46 301 0 301 C0 201.67 0 102.34 0 0 Z " fill="#000000" transform="translate(662,0)"/>
</svg>
