<?xml version="1.0" encoding="UTF-8"?>
<svg id="Layer_1" xmlns="http://www.w3.org/2000/svg" version="1.1" viewBox="180 230 490 150">
  <!-- Generator: Adobe Illustrator 29.3.1, SVG Export Plug-In . SVG Version: 2.1.0 Build 151)  -->
  <g>
    <g id="_x3C_Radial_Repeat_x3E_">
      <path d="M220.07,372.21l-10.21-.79c-2.21-.17-3.12-2.92-1.45-4.37l44.96-65.39c5.68-8.27,15.23-13.02,25.25-12.58l40.04,1.77c4.94.18,5.42,2.19,3.84,4.19,0,0-55.61,49.06-74.3,65.24-16.6,14.38-18.83,12.64-28.14,11.92Z"/>
    </g>
    <g id="_x3C_Radial_Repeat_x3E_1" data-name="_x3C_Radial_Repeat_x3E_">
      <path d="M183.18,237.26l5.79-8.45c1.25-1.83,4.08-1.24,4.51.93l34.15,71.63c4.32,9.06,3.66,19.7-1.73,28.16l-21.55,33.79c-2.63,4.19-4.61,3.6-5.55,1.23,0,0-14.68-72.69-19.36-96.96-4.15-21.56-1.53-22.63,3.75-30.33Z"/>
    </g>
    <g id="_x3C_Radial_Repeat_x3E_2" data-name="_x3C_Radial_Repeat_x3E_">
      <path d="M318.5,272.78l4.42,9.24c.96,2-.97,4.16-3.06,3.44l-79.11-6.24c-10-.79-18.89-6.68-23.52-15.58l-18.49-35.56c-2.31-4.37-.82-5.79,1.71-5.42,0,0,70.29,23.63,93.65,31.72,20.75,7.18,20.36,9.99,24.39,18.41Z"/>
    </g>
  </g>
  <g>
    <g>
      <path d="M360.86,349.09h8.92v1.44h-7.38v4.1h5.74v1.44h-5.74v4.28h7.67v1.44h-9.21v-12.72Z"/>
      <path d="M384.15,355.44c0,4.08-2.41,6.36-6.4,6.36h-4.1v-12.72h4.1c3.99,0,6.4,2.27,6.4,6.36ZM382.53,355.44c0-3.08-1.71-4.91-4.62-4.91h-2.72v9.83h2.72c2.91,0,4.62-1.83,4.62-4.91Z"/>
      <path d="M397.78,357.06c0,3.28-1.77,4.93-4.99,4.93s-4.99-1.66-4.99-4.93v-7.98h1.54v7.59c0,2.66,1.08,3.87,3.45,3.87s3.45-1.21,3.45-3.87v-7.59h1.54v7.98Z"/>
      <path d="M407.32,362c-3.62,0-5.9-2.53-5.9-6.55s2.31-6.55,5.86-6.55c2.47,0,4.12,1.04,4.93,2.97l-1.52.71c-.56-1.46-1.6-2.23-3.29-2.23-2.6,0-4.35,1.89-4.35,5.1s1.64,5.1,4.28,5.1c1.7,0,3.03-.87,3.58-2.58l1.54.58c-.81,2.18-2.74,3.45-5.12,3.45Z"/>
      <path d="M424.41,361.8l-1.35-3.52h-5.76l-1.35,3.52h-1.62l4.95-12.72h1.83l4.93,12.72h-1.64ZM422.51,356.83l-2.33-6.26-2.31,6.26h4.64Z"/>
      <path d="M436.34,350.53h-4.43v11.27h-1.54v-11.27h-4.43v-1.44h10.4v1.44Z"/>
      <path d="M441.08,361.8h-1.54v-12.72h1.54v12.72Z"/>
      <path d="M456.76,355.44c0,4.03-2.27,6.55-5.9,6.55s-5.9-2.53-5.9-6.55,2.27-6.55,5.9-6.55,5.9,2.53,5.9,6.55ZM446.58,355.44c0,3.2,1.64,5.1,4.28,5.1s4.28-1.91,4.28-5.1-1.64-5.1-4.28-5.1-4.28,1.91-4.28,5.1Z"/>
      <path d="M470.64,361.8h-1.91l-5.32-8.52-1.35-2.39h-.02l.08,1.93v8.98h-1.46v-12.72h1.91l5.3,8.48,1.37,2.45h.02l-.08-1.94v-8.98h1.46v12.72Z"/>
      <path d="M490.09,361.8l-1.35-3.52h-5.76l-1.35,3.52h-1.62l4.95-12.72h1.83l4.93,12.72h-1.64ZM488.19,356.83l-2.33-6.26-2.31,6.26h4.64Z"/>
      <path d="M504.8,361.8h-1.91l-5.32-8.52-1.35-2.39h-.02l.08,1.93v8.98h-1.46v-12.72h1.91l5.3,8.48,1.37,2.45h.02l-.08-1.94v-8.98h1.46v12.72Z"/>
      <path d="M519.97,355.44c0,4.08-2.41,6.36-6.4,6.36h-4.1v-12.72h4.1c3.99,0,6.4,2.27,6.4,6.36ZM518.35,355.44c0-3.08-1.72-4.91-4.62-4.91h-2.72v9.83h2.72c2.91,0,4.62-1.83,4.62-4.91Z"/>
      <path d="M539.35,350.53h-4.43v11.27h-1.54v-11.27h-4.43v-1.44h10.4v1.44Z"/>
      <path d="M542.55,349.09h8.92v1.44h-7.38v4.1h5.74v1.44h-5.74v4.28h7.67v1.44h-9.21v-12.72Z"/>
      <path d="M560.18,362c-3.62,0-5.9-2.53-5.9-6.55s2.31-6.55,5.86-6.55c2.47,0,4.12,1.04,4.93,2.97l-1.52.71c-.56-1.46-1.6-2.23-3.3-2.23-2.6,0-4.35,1.89-4.35,5.1s1.64,5.1,4.28,5.1c1.7,0,3.02-.87,3.58-2.58l1.54.58c-.81,2.18-2.74,3.45-5.12,3.45Z"/>
      <path d="M570.32,354.64h6.9v-5.55h1.54v12.72h-1.54v-5.72h-6.9v5.72h-1.54v-12.72h1.54v5.55Z"/>
      <path d="M593.41,361.8h-1.91l-5.32-8.52-1.35-2.39h-.02l.08,1.93v8.98h-1.46v-12.72h1.91l5.3,8.48,1.37,2.45h.02l-.08-1.94v-8.98h1.46v12.72Z"/>
      <path d="M609.09,355.44c0,4.03-2.27,6.55-5.9,6.55s-5.9-2.53-5.9-6.55,2.27-6.55,5.9-6.55,5.9,2.53,5.9,6.55ZM598.92,355.44c0,3.2,1.64,5.1,4.28,5.1s4.28-1.91,4.28-5.1-1.64-5.1-4.28-5.1-4.28,1.91-4.28,5.1Z"/>
      <path d="M621.82,360.36v1.44h-8.82v-12.72h1.54v11.27h7.28Z"/>
      <path d="M635.59,355.44c0,4.03-2.27,6.55-5.9,6.55s-5.9-2.53-5.9-6.55,2.27-6.55,5.9-6.55,5.9,2.53,5.9,6.55ZM625.42,355.44c0,3.2,1.64,5.1,4.28,5.1s4.28-1.91,4.28-5.1-1.64-5.1-4.28-5.1-4.28,1.91-4.28,5.1Z"/>
      <path d="M638.72,355.44c0-4.03,2.47-6.55,6.03-6.55,2.53,0,4.01.94,4.99,2.91l-1.41.77c-.56-1.46-1.81-2.23-3.59-2.23-2.58,0-4.41,1.91-4.41,5.1s1.5,5.1,4.33,5.1c2.12,0,3.76-1.08,3.76-3.27v-.44h-4.05v-1.45h5.45v6.42h-1.21l-.06-1.72c-.75,1.23-2.1,1.91-3.95,1.91-3.62,0-5.9-2.53-5.9-6.55Z"/>
      <path d="M657.96,356.83v4.97h-1.54v-4.97l-4.55-7.75h1.83l2.47,4.35,1.02,1.81,1.02-1.81,2.47-4.35h1.83l-4.55,7.75Z"/>
    </g>
    <g>
      <path d="M361.79,329.8c-.95,0-1.9-.95-1.9-1.9v-91.14c0-.95.95-1.9,1.9-1.9h39.08c28.96,0,51.27,18.2,51.27,47.47s-18.83,47.47-50.95,47.47h-39.4ZM373.82,246.89v70.89h27.37c25,0,37.03-13.77,37.03-35.44s-15.98-35.44-37.34-35.44h-27.06Z"/>
      <path d="M535.11,310.18h-52.69l-8.7,17.56c-1.11,2.06-1.42,2.06-3.32,2.06h-10.29c-.95,0-1.42-.63-1.42-1.11s.47-1.27.79-1.9l46.52-91.94h5.7l46.52,91.94c.32.63.79,1.42.79,1.9s-.47,1.11-1.42,1.11h-10.29c-1.9,0-2.21,0-3.32-2.06l-8.86-17.56ZM488.43,298.16h40.67l-12.66-25.32c-2.37-4.75-7.12-17.4-7.12-17.4h-.95s-4.75,12.66-7.12,17.4l-12.82,25.32Z"/>
      <path d="M664.51,282.33c0,30.7-22.94,49.05-51.27,49.05s-51.27-18.36-51.27-49.05,23.1-49.05,51.27-49.05,51.27,18.35,51.27,49.05ZM575.9,282.33c0,23.1,16.93,37.03,37.34,37.03s37.34-13.92,37.34-37.03-16.46-37.03-37.34-37.03-37.34,13.61-37.34,37.03Z"/>
    </g>
  </g>
</svg>