<?xml version="1.0" encoding="UTF-8"?>
<svg id="Layer_1" xmlns="http://www.w3.org/2000/svg" version="1.1" viewBox="140 210 560 180">
  <!-- Generator: Adobe Illustrator 29.3.1, SVG Export Plug-In . SVG Version: 2.1.0 Build 151)  -->
  <g>
    <g id="_x3C_Radial_Repeat_x3E_">
      <path d="M200.3,379.55l-11.21-.87c-2.42-.19-3.42-3.2-1.59-4.8l49.38-71.82c6.24-9.08,16.73-14.3,27.74-13.82l43.98,1.94c5.43.2,5.96,2.4,4.22,4.61,0,0-61.09,53.89-81.61,71.67-18.23,15.79-20.68,13.88-30.91,13.09Z"/>
    </g>
    <g id="_x3C_Radial_Repeat_x3E_1" data-name="_x3C_Radial_Repeat_x3E_">
      <path d="M159.77,231.31l6.36-9.28c1.37-2.01,4.49-1.36,4.95,1.02l37.51,78.68c4.74,9.95,4.02,21.64-1.9,30.93l-23.67,37.11c-2.89,4.6-5.06,3.96-6.1,1.35,0,0-16.13-79.85-21.26-106.51-4.56-23.68-1.68-24.85,4.12-33.31Z"/>
    </g>
    <g id="_x3C_Radial_Repeat_x3E_2" data-name="_x3C_Radial_Repeat_x3E_">
      <path d="M308.41,270.34l4.86,10.14c1.05,2.19-1.06,4.57-3.36,3.78l-86.89-6.86c-10.99-.87-20.75-7.33-25.83-17.11l-20.31-39.06c-2.54-4.8-.9-6.36,1.88-5.96,0,0,77.21,25.96,102.87,34.84,22.79,7.89,22.36,10.97,26.79,20.22Z"/>
    </g>
  </g>
  <g>
    <g>
      <path d="M355.97,334.67c-1.04,0-2.09-1.04-2.09-2.09v-100.12c0-1.04,1.04-2.08,2.09-2.08h42.93c31.81,0,56.32,19.99,56.32,52.14s-20.68,52.15-55.97,52.15h-43.28ZM369.18,243.59v77.87h30.07c27.46,0,40.67-15.12,40.67-38.93s-17.56-38.93-41.02-38.93h-29.72Z"/>
      <path d="M546.35,313.12h-57.88l-9.56,19.29c-1.22,2.26-1.57,2.26-3.65,2.26h-11.3c-1.04,0-1.56-.7-1.56-1.22s.52-1.39.87-2.08l51.1-100.99h6.26l51.1,100.99c.35.69.87,1.56.87,2.08s-.52,1.22-1.57,1.22h-11.3c-2.08,0-2.43,0-3.65-2.26l-9.73-19.29ZM495.07,299.91h44.67l-13.91-27.81c-2.61-5.21-7.82-19.12-7.82-19.12h-1.04s-5.21,13.9-7.82,19.12l-14.08,27.81Z"/>
      <path d="M688.49,282.52c0,33.72-25.2,53.88-56.32,53.88s-56.32-20.16-56.32-53.88,25.38-53.88,56.32-53.88,56.32,20.16,56.32,53.88ZM591.15,282.52c0,25.38,18.6,40.67,41.02,40.67s41.02-15.29,41.02-40.67-18.08-40.67-41.02-40.67-41.02,14.95-41.02,40.67Z"/>
    </g>
    <g>
      <path d="M356.16,359.58v6.09h8.52v2.14h-8.52v8.49h-2.29v-18.86h13.2v2.14h-10.92Z"/>
      <path d="M374.31,376.29h-2.29v-18.86h2.29v18.86Z"/>
      <path d="M395.99,376.29h-2.83l-7.89-12.63-2-3.54h-.03l.11,2.86v13.32h-2.17v-18.86h2.83l7.86,12.57,2.03,3.63h.03l-.11-2.89v-13.32h2.17v18.86Z"/>
      <path d="M415.48,376.29l-2-5.23h-8.54l-2,5.23h-2.4l7.34-18.86h2.71l7.32,18.86h-2.43ZM412.65,368.92l-3.46-9.29-3.43,9.29h6.89Z"/>
      <path d="M437.25,376.29h-2.83l-7.89-12.63-2-3.54h-.03l.11,2.86v13.32h-2.17v-18.86h2.83l7.86,12.57,2.03,3.63h.03l-.11-2.89v-13.32h2.17v18.86Z"/>
      <path d="M450.94,376.58c-5.37,0-8.74-3.74-8.74-9.72s3.43-9.72,8.69-9.72c3.66,0,6.12,1.54,7.32,4.4l-2.26,1.06c-.83-2.17-2.37-3.31-4.89-3.31-3.86,0-6.46,2.8-6.46,7.57s2.43,7.57,6.34,7.57c2.52,0,4.49-1.29,5.32-3.83l2.29.86c-1.2,3.23-4.06,5.12-7.6,5.12Z"/>
      <path d="M466.11,376.29h-2.29v-18.86h2.29v18.86Z"/>
      <path d="M485.65,376.29l-2-5.23h-8.54l-2,5.23h-2.4l7.34-18.86h2.71l7.32,18.86h-2.43ZM482.82,368.92l-3.46-9.29-3.43,9.29h6.89Z"/>
      <path d="M504.82,374.15v2.14h-13.09v-18.86h2.29v16.72h10.8Z"/>
      <path d="M534.01,361.15l-1.91,1.49c-1.4-2.43-3.09-3.34-5.6-3.34-3.06,0-4.4,1.4-4.4,3.14,0,1.34.63,2.37,3.14,2.94l4.09.91c3.6.8,4.86,2.43,4.86,4.83,0,3.23-2.86,5.46-7.26,5.46-4.09,0-6.72-1.83-8.12-4.17l2-1.63c1.09,2.17,3.09,3.66,6.26,3.66,2.91,0,4.74-1.09,4.74-3.11,0-1.2-.66-2.26-2.86-2.74l-4.43-1c-3.52-.77-4.83-2.57-4.83-4.83,0-3.03,2.66-5.6,7.03-5.6,3.31,0,5.69,1.37,7.29,4Z"/>
      <path d="M556.04,366.86c0,5.97-3.37,9.72-8.74,9.72s-8.74-3.74-8.74-9.72,3.37-9.72,8.74-9.72,8.74,3.74,8.74,9.72ZM540.95,366.86c0,4.74,2.43,7.57,6.34,7.57s6.34-2.83,6.34-7.57-2.43-7.57-6.34-7.57-6.34,2.83-6.34,7.57Z"/>
      <path d="M574.87,374.15v2.14h-13.09v-18.86h2.29v16.72h10.8Z"/>
      <path d="M593.55,369.26c0,4.86-2.63,7.32-7.4,7.32s-7.4-2.46-7.4-7.32v-11.83h2.29v11.26c0,3.94,1.6,5.74,5.12,5.74s5.12-1.8,5.12-5.74v-11.26h2.29v11.83Z"/>
      <path d="M613.32,359.58h-6.57v16.72h-2.29v-16.72h-6.57v-2.14h15.43v2.14Z"/>
      <path d="M620.58,376.29h-2.29v-18.86h2.29v18.86Z"/>
      <path d="M644.04,366.86c0,5.97-3.37,9.72-8.74,9.72s-8.74-3.74-8.74-9.72,3.37-9.72,8.74-9.72,8.74,3.74,8.74,9.72ZM628.95,366.86c0,4.74,2.43,7.57,6.34,7.57s6.34-2.83,6.34-7.57-2.43-7.57-6.34-7.57-6.34,2.83-6.34,7.57Z"/>
      <path d="M664.09,376.29h-2.83l-7.89-12.63-2-3.54h-.03l.11,2.86v13.32h-2.17v-18.86h2.83l7.86,12.57,2.03,3.63h.03l-.11-2.89v-13.32h2.17v18.86Z"/>
      <path d="M684.32,361.15l-1.91,1.49c-1.4-2.43-3.09-3.34-5.6-3.34-3.06,0-4.4,1.4-4.4,3.14,0,1.34.63,2.37,3.14,2.94l4.09.91c3.6.8,4.86,2.43,4.86,4.83,0,3.23-2.86,5.46-7.26,5.46-4.09,0-6.72-1.83-8.12-4.17l2-1.63c1.09,2.17,3.09,3.66,6.26,3.66,2.91,0,4.74-1.09,4.74-3.11,0-1.2-.66-2.26-2.86-2.74l-4.43-1c-3.52-.77-4.83-2.57-4.83-4.83,0-3.03,2.66-5.6,7.03-5.6,3.31,0,5.69,1.37,7.29,4Z"/>
    </g>
  </g>
</svg>